<?xml version="1.0" encoding="utf-8"?>
<!-- Generator: Adobe Illustrator 16.0.0, SVG Export Plug-In . SVG Version: 6.00 Build 0)  -->
<!DOCTYPE svg PUBLIC "-//W3C//DTD SVG 1.1//EN" "http://www.w3.org/Graphics/SVG/1.1/DTD/svg11.dtd">
<svg version="1.1" id="Warstwa_1" xmlns="http://www.w3.org/2000/svg" xmlns:xlink="http://www.w3.org/1999/xlink" x="0px" y="0px"
	 width="283.46px" height="283.46px" viewBox="0 0 283.46 283.46" enable-background="new 0 0 283.46 283.46" xml:space="preserve">
<g>
	<path fill-rule="evenodd" clip-rule="evenodd" fill="#00628B" d="M283.462,141.731c0,78.272-63.456,141.73-141.73,141.73
		c-78.277,0-141.733-63.458-141.733-141.73c0-78.278,63.456-141.733,141.733-141.733C220.006-0.002,283.462,63.453,283.462,141.731
		L283.462,141.731z"/>
	<path fill="#FFFFFF" d="M249.161,98.169l-1.226-2.904l6.689-1.074L249.161,98.169L249.161,98.169z M244.835,105.335l1.938-0.813
		l-0.458-1.093l10.637-8.185l-1.341-3.205l-13.302,1.863l-0.442-1.055l-1.938,0.813l1.14,2.709l4.822-0.804l1.604,3.821
		l-3.931,2.916L244.835,105.335L244.835,105.335z"/>
	<path fill="#FFFFFF" d="M239.137,92.062l1.822-1.045l-0.636-1.112l3.163-1.816c1.473-0.845,1.868-2.264,1.086-3.636l-0.758-1.311
		l5.322,0.314l0.877,1.521l1.837-1.056l-1.485-2.585l-7.879-0.121l5.872-3.373l-1.833-3.195l-1.838,1.053l0.636,1.112l-9.415,5.41
		l-0.639-1.108l-1.822,1.045l1.837,3.197l5.667-3.255l1.559,2.719c0.325,0.562,0.108,0.99-0.605,1.4l-4.604,2.646L239.137,92.062
		L239.137,92.062z"/>
	<path fill="#FFFFFF" d="M234.036,78.276l2.647-1.938c1.376-1.006,1.608-2.433,0.671-3.709l-1.833-2.515
		c-0.384-0.524-0.205-0.989,0.453-1.47l1.419-1.038c0.675-0.493,1.138-0.505,1.527,0.023l1.837,2.51l-1.555,1.14l1.398,1.911
		l3.265-2.39l-3.655-4.994c-0.934-1.278-2.391-1.492-3.76-0.492l-2.476,1.812c-1.373,1.005-1.613,2.456-0.68,3.737l1.83,2.497
		c0.384,0.525,0.217,0.978-0.462,1.472l-1.558,1.141c-0.663,0.483-1.159,0.517-1.543-0.007l-2.007-2.745l1.883-1.374l-1.457-1.991
		l-3.577,2.617l3.896,5.316C231.23,79.075,232.681,79.267,234.036,78.276L234.036,78.276z"/>
	<path fill="#FFFFFF" d="M234.463,61.934l1.527-1.475l-2.441-2.526l-6.396,6.178c-0.469,0.449-0.977,1.023-1.516,1.727l4.074-11.876
		l-2.636-2.736l-1.527,1.476l0.892,0.918l-7.814,7.546l-0.892-0.922l-1.511,1.46l2.444,2.528l6.385-6.168
		c0.465-0.45,0.988-1.033,1.542-1.755l-3.934,12.059l1.593,1.646l9.321-9.002L234.463,61.934L234.463,61.934z M236.506,54.861
		l-1.647-1.702l-3.298,1.008l1.313,1.362L236.506,54.861L236.506,54.861z"/>
	<path fill="#FFFFFF" d="M215.238,60.809l1.326-1.628l-0.915-0.75l5.566-12.215l-2.689-2.2l-10.876,7.876l-0.892-0.723l-1.325,1.626
		l2.277,1.862l3.881-2.973l3.213,2.623l-2.108,4.419L215.238,60.809L215.238,60.809z M215.699,52.449l-2.437-1.992l5.402-4.08
		L215.699,52.449L215.699,52.449z"/>
	<path fill="#FFFFFF" d="M211.758,41.378l1.108-1.808l-2.999-1.833l-4.637,7.588c-0.34,0.553-0.688,1.235-1.03,2.053l0.954-12.521
		l-3.241-1.982l-1.104,1.813l1.093,0.664l-5.663,9.27l-1.093-0.669l-1.098,1.793l3.005,1.833l4.627-7.574
		c0.337-0.554,0.694-1.253,1.05-2.089l-0.774,12.659l1.958,1.195l6.752-11.058L211.758,41.378L211.758,41.378z"/>
	<polygon fill="#FFFFFF" points="192.085,44.675 194.049,40.411 191.918,39.431 190.828,41.785 186.371,39.733 197.344,32.619 
		198.153,30.869 189.2,26.743 187.251,30.975 189.402,31.966 190.465,29.661 194.697,31.609 183.705,38.672 182.891,40.441 
		192.085,44.675 	"/>
	<path fill="#FFFFFF" d="M179.479,35.598c-0.264,0.777-0.63,1.095-1.242,0.888l-2.714-0.925c-0.616-0.203-0.732-0.689-0.469-1.469
		l2.702-7.949c0.267-0.793,0.647-1.069,1.26-0.861l2.713,0.923c0.611,0.205,0.729,0.651,0.457,1.444L179.479,35.598L179.479,35.598z
		 M181.584,36.956l3.09-9.087c0.547-1.608-0.093-2.936-1.597-3.445l-4.05-1.378c-1.502-0.51-2.82,0.155-3.361,1.764l-3.085,9.089
		c-0.544,1.589,0.093,2.918,1.597,3.426l4.047,1.378C179.732,39.212,181.046,38.551,181.584,36.956L181.584,36.956z"/>
	<path fill="#FFFFFF" d="M169.355,25.816c-0.162,0.805-0.508,1.144-1.139,1.016l-3.039-0.615l0.863-4.241l3.036,0.615
		c0.636,0.131,0.821,0.56,0.655,1.377L169.355,25.816L169.355,25.816z M171.693,26.408l0.516-2.541
		c0.333-1.664-0.445-2.895-1.999-3.21l-7.357-1.491l-0.422,2.075l1.255,0.258l-2.158,10.642l-1.256-0.256l-0.419,2.061l5,1.013
		l0.419-2.061l-1.389-0.278l0.9-4.438l3.371,0.686C169.931,29.226,171.302,28.312,171.693,26.408L171.693,26.408z"/>
	<path fill="#FFFFFF" d="M144.991,25.798l-3.151-0.041l1.691-6.562L144.991,25.798L144.991,25.798z M149.83,32.623l0.029-2.101
		l-1.185-0.014l-3.25-13.025l-3.477-0.042l-3.607,12.93l-1.146-0.016l-0.025,2.102l2.939,0.038l1.19-4.74l4.143,0.055l1.103,4.771
		L149.83,32.623L149.83,32.623z"/>
	<path fill="#FFFFFF" d="M135.695,32.511l-0.231-2.089l-1.271,0.142l-0.401-3.627c-0.184-1.689-1.325-2.622-2.903-2.447
		l-1.497,0.165l2.416-4.754l1.749-0.191l-0.235-2.107l-2.961,0.326l-3.263,7.171l-0.743-6.731l-3.664,0.405l0.232,2.107l1.273-0.142
		l1.186,10.793l-1.271,0.144l0.229,2.086l3.667-0.401l-0.715-6.493l3.112-0.346c0.647-0.07,0.955,0.3,1.046,1.116l0.58,5.281
		L135.695,32.511L135.695,32.511z"/>
	<polygon fill="#FFFFFF" points="122.428,34.183 122.019,32.121 120.743,32.375 118.615,21.726 119.893,21.472 119.478,19.391 
		114.589,20.367 115.003,22.447 116.258,22.197 118.384,32.844 117.129,33.098 117.54,35.156 122.428,34.183 	"/>
	<path fill="#FFFFFF" d="M111.941,23.099l-0.622-2.026l-3.36,1.032l2.616,8.501c0.189,0.62,0.473,1.333,0.854,2.132l-8.746-9.01
		l-3.633,1.118l0.624,2.025l1.222-0.375l3.193,10.377l-1.223,0.376l0.615,2.01l3.362-1.035l-2.61-8.482
		c-0.191-0.622-0.476-1.354-0.868-2.172l8.973,8.967l2.188-0.675l-3.811-12.388L111.941,23.099L111.941,23.099z"/>
	<polygon fill="#FFFFFF" points="101.455,40.09 100.565,38.187 99.405,38.728 94.81,28.87 95.971,28.331 95.075,26.408 
		91.731,27.966 94.521,33.945 90.453,35.844 87.663,29.863 84.319,31.419 85.219,33.342 86.378,32.801 90.977,42.659 89.816,43.2 
		90.704,45.104 94.043,43.547 91.26,37.576 95.327,35.677 98.112,41.649 101.455,40.09 	"/>
	<path fill="#FFFFFF" d="M88.595,46.229l-2.467-4.087l-1.815,1.096l1.379,2.287l-3.188,1.925c-0.555,0.336-1,0.113-1.427-0.59
		l-4.342-7.188c-0.431-0.713-0.399-1.181,0.156-1.517l3.188-1.925l1.351,2.235l1.813-1.096l-2.445-4.051l-5.608,3.388
		c-1.359,0.82-1.696,2.252-0.817,3.705l4.961,8.217c0.868,1.439,2.294,1.805,3.651,0.983L88.595,46.229L88.595,46.229z"/>
	<polygon fill="#FFFFFF" points="78.836,52.382 75.882,48.603 74.198,49.919 75.855,52.043 72.198,54.899 69.316,51.213 
		73.108,48.246 71.86,46.653 68.068,49.615 65.513,46.344 69.05,43.582 70.621,45.594 72.277,44.299 69.399,40.613 61.301,46.941 
		62.609,48.612 63.616,47.825 70.301,56.382 69.293,57.171 70.588,58.824 78.836,52.382 	"/>
	<polygon fill="#FFFFFF" points="61.678,52.173 58.708,49.146 50.381,57.322 53.35,60.349 54.944,58.78 53.46,57.27 55.166,55.599 
		62.775,63.347 61.778,64.323 63.25,65.823 66.985,62.154 65.513,60.654 64.505,61.646 56.896,53.901 58.6,52.228 60.083,53.736 
		61.678,52.173 	"/>
	<polygon fill="#FFFFFF" points="59.893,69.293 58.292,67.932 57.45,68.923 49.175,61.887 50.019,60.895 48.406,59.523 
		45.176,63.321 46.79,64.694 47.619,63.719 55.892,70.753 55.063,71.73 56.662,73.091 59.893,69.293 	"/>
	<polygon fill="#FFFFFF" points="55.143,74.989 50.956,72.056 49.705,73.839 52.176,75.567 49.873,78.85 40.979,72.621 
		41.778,71.478 40.045,70.264 37.13,74.424 38.865,75.639 39.599,74.591 48.492,80.823 47.757,81.871 49.478,83.074 55.143,74.989 	
		"/>
	<path fill="#FFFFFF" d="M44.087,85.548c0.725,0.385,0.979,0.802,0.676,1.376l-1.347,2.527c-0.303,0.576-0.801,0.614-1.525,0.228
		l-7.418-3.941c-0.737-0.394-0.949-0.811-0.645-1.382l1.346-2.533c0.306-0.57,0.76-0.61,1.498-0.218L44.087,85.548L44.087,85.548z
		 M45.765,83.692l-8.473-4.505c-1.503-0.799-2.914-0.382-3.657,1.02l-2.012,3.774c-0.74,1.401-0.297,2.806,1.202,3.604l8.475,4.506
		c1.484,0.788,2.895,0.37,3.64-1.029l2.011-3.774C47.693,85.887,47.251,84.481,45.765,83.692L45.765,83.692z"/>
	<path fill="#FFFFFF" d="M32.461,94.17c0.764,0.296,1.041,0.689,0.806,1.296l-1.118,2.884l-4.032-1.566l1.12-2.884
		c0.232-0.604,0.684-0.718,1.467-0.415L32.461,94.17L32.461,94.17z M33.439,91.966l-2.417-0.938
		c-1.583-0.612-2.93-0.048-3.504,1.427l-2.715,7l1.979,0.768l0.461-1.194l10.122,3.926l-0.461,1.198l1.958,0.76l1.844-4.756
		l-1.956-0.762l-0.51,1.32l-4.224-1.639l1.244-3.205C35.918,94.178,35.251,92.671,33.439,91.966L33.439,91.966z"/>
	<polygon fill="#FFFFFF" points="252.486,129.019 250.37,129.137 250.533,131.922 256.873,134.501 250.873,137.814 251.048,140.826 
		253.164,140.704 253.091,139.426 259.16,135.67 263.734,135.406 263.812,136.778 265.912,136.658 265.618,131.546 263.517,131.668 
		263.595,133.003 258.904,133.272 252.563,130.294 252.486,129.019 	"/>
	<path fill="#FFFFFF" d="M266.067,143.433l-8.644-0.364l-0.201,4.791l2.116,0.089l0.104-2.48l4.426,0.186l-0.15,3.718
		c-0.031,0.65-0.462,0.902-1.279,0.868l-8.396-0.351c-0.837-0.039-1.206-0.317-1.178-0.968l0.155-3.729l2.473,0.109l0.093-2.155
		l-4.593-0.193l-0.275,6.585c-0.07,1.585,0.938,2.658,2.636,2.729l9.593,0.402c1.678,0.067,2.771-0.918,2.842-2.499L266.067,143.433
		L266.067,143.433z"/>
	<path fill="#FFFFFF" d="M261.563,158.579c0.813,0.136,1.186,0.442,1.085,1.085l-0.453,2.83c-0.104,0.64-0.562,0.837-1.367,0.709
		l-8.296-1.333c-0.829-0.128-1.163-0.454-1.062-1.093l0.457-2.833c0.1-0.641,0.52-0.822,1.345-0.692L261.563,158.579
		L261.563,158.579z M262.555,156.284l-9.479-1.519c-1.679-0.271-2.88,0.581-3.128,2.147l-0.679,4.221
		c-0.256,1.573,0.62,2.751,2.303,3.022l9.477,1.516c1.658,0.268,2.856-0.581,3.112-2.146l0.674-4.226
		C265.083,157.73,264.215,156.549,262.555,156.284L262.555,156.284z"/>
	<polygon fill="#FFFFFF" points="263.043,169.223 258.099,167.912 257.54,170.016 260.454,170.792 259.424,174.672 248.932,171.889 
		249.285,170.543 247.238,169.998 245.936,174.912 247.99,175.454 248.316,174.215 258.812,176.997 258.486,178.234 
		260.517,178.772 263.043,169.223 	"/>
	<path fill="#FFFFFF" d="M255.129,183.861c0.768,0.294,1.078,0.671,0.85,1.279l-1.02,2.678c-0.229,0.608-0.722,0.705-1.488,0.419
		l-7.853-2.98c-0.779-0.295-1.043-0.683-0.811-1.29l1.016-2.68c0.229-0.604,0.679-0.705,1.457-0.406L255.129,183.861
		L255.129,183.861z M256.563,181.807l-8.977-3.402c-1.585-0.605-2.938-0.012-3.496,1.469l-1.517,4
		c-0.562,1.488,0.052,2.821,1.645,3.426l8.973,3.403c1.574,0.597,2.923,0.004,3.481-1.478l1.519-3.999
		C258.749,183.741,258.137,182.407,256.563,181.807L256.563,181.807z"/>
	<path fill="#FFFFFF" d="M242.587,189.202l-1.86-1.019l-1.689,3.076l7.794,4.283c0.57,0.312,1.268,0.632,2.098,0.931l-12.551-0.374
		l-1.831,3.33l1.861,1.021l0.613-1.12l9.518,5.227l-0.615,1.125l1.841,1.009l1.69-3.078l-7.775-4.275
		c-0.572-0.313-1.283-0.643-2.14-0.952l12.69,0.188l1.101-2.007l-11.364-6.24L242.587,189.202L242.587,189.202z"/>
	<polygon fill="#FFFFFF" points="245.494,210.414 243.809,209.159 243.045,210.186 234.315,203.693 235.074,202.667 233.37,201.407 
		231.177,204.364 236.475,208.302 233.797,211.903 228.499,207.973 226.301,210.926 228.002,212.189 228.766,211.166 
		237.494,217.65 236.734,218.682 238.424,219.93 240.618,216.973 235.331,213.042 238.006,209.438 243.301,213.368 245.494,210.414 
			"/>
	<path fill="#FFFFFF" d="M235.688,223.162l-3.526-3.209l-1.427,1.569l1.977,1.794l-2.503,2.761
		c-0.438,0.477-0.931,0.391-1.535-0.159l-6.218-5.644c-0.62-0.565-0.725-1.022-0.286-1.5l2.504-2.756l1.931,1.756l1.426-1.565
		l-3.5-3.186l-4.407,4.853c-1.065,1.17-0.98,2.638,0.279,3.778l7.101,6.457c1.248,1.132,2.718,1.078,3.782-0.098L235.688,223.162
		L235.688,223.162z"/>
	<polygon fill="#FFFFFF" points="226.455,232.785 223.339,229.143 221.72,230.53 223.463,232.58 219.937,235.596 216.897,232.042 
		220.557,228.912 219.239,227.376 215.584,230.503 212.883,227.344 216.293,224.43 217.952,226.367 219.549,224.999 216.51,221.449 
		208.704,228.127 210.076,229.739 211.053,228.906 218.107,237.162 217.139,237.994 218.502,239.588 226.455,232.785 	"/>
	<polygon fill="#FFFFFF" points="209.564,232.809 207.212,229.286 197.511,235.771 199.863,239.293 201.724,238.05 200.545,236.29 
		202.533,234.967 208.565,243.994 207.401,244.766 208.572,246.518 212.922,243.607 211.758,241.859 210.58,242.642 204.55,233.615 
		206.533,232.29 207.711,234.045 209.564,232.809 	"/>
	<polygon fill="#FFFFFF" points="191.976,244.025 190.084,239.751 180.982,243.773 181.845,245.716 183.014,245.196 
		187.402,255.126 186.231,255.646 187.084,257.567 191.782,255.49 190.93,253.568 189.604,254.156 187.75,249.964 192.309,247.943 
		191.457,246.006 186.891,248.021 185.209,244.223 188.867,242.611 189.898,244.949 191.976,244.025 	"/>
	<polygon fill="#FFFFFF" points="161.516,251.421 161.248,249.319 158.48,249.676 156.349,256.184 152.628,250.425 149.635,250.805 
		149.898,252.905 151.171,252.747 155.338,258.54 155.919,263.082 154.554,263.258 154.822,265.343 159.898,264.696 159.632,262.61 
		158.307,262.781 157.713,258.121 160.244,251.583 161.516,251.421 	"/>
	<polygon fill="#FFFFFF" points="148.311,255.083 148.276,250.848 136.604,250.94 136.643,255.176 138.875,255.157 138.859,253.049 
		141.245,253.025 141.333,263.882 139.942,263.895 139.959,265.994 145.19,265.955 145.172,263.851 143.76,263.862 143.673,253.006 
		146.059,252.982 146.076,255.099 148.311,255.083 	"/>
	<polygon fill="#FFFFFF" points="133.528,265.77 133.71,263.677 132.415,263.564 133.363,252.747 134.657,252.863 134.842,250.746 
		129.875,250.312 129.692,252.421 130.969,252.533 130.019,263.351 128.743,263.242 128.562,265.332 133.528,265.77 	"/>
	<path fill="#FFFFFF" d="M124.999,262.266l0.603-3.229c0.311-1.67-0.496-2.868-2.052-3.162l-3.061-0.57
		c-0.639-0.119-0.823-0.581-0.676-1.388l0.325-1.721c0.152-0.824,0.487-1.15,1.124-1.034l3.062,0.573l-0.354,1.892l2.328,0.438
		l0.743-3.977l-6.082-1.14c-1.559-0.295-2.768,0.55-3.075,2.22l-0.566,3.021c-0.314,1.67,0.51,2.892,2.065,3.186l3.043,0.565
		c0.639,0.116,0.827,0.562,0.674,1.388l-0.354,1.896c-0.153,0.81-0.492,1.174-1.13,1.055l-3.339-0.629l0.427-2.285l-2.423-0.455
		l-0.815,4.354l6.479,1.213C123.501,264.766,124.689,263.921,124.999,262.266L124.999,262.266z"/>
	<path fill="#FFFFFF" d="M112.917,262.815l0.592-2.015l-1.242-0.368l0.822-2.787c0.467-1.569,0.195-2.47-1.191-3.302
		c1.371,0.213,2.176-0.229,2.529-1.415l0.687-2.321c0.483-1.628-0.193-2.923-1.715-3.372l-7.197-2.133l-0.599,2.035l1.227,0.361
		l-3.081,10.417l-1.226-0.368l-0.595,2.017l3.533,1.046l1.881-6.356l3.021,0.896c0.644,0.19,0.743,0.655,0.508,1.446l-1.523,5.162
		L112.917,262.815L112.917,262.815z M112.101,252.3c-0.233,0.784-0.604,1.09-1.226,0.908l-2.967-0.876l1.226-4.147l2.969,0.872
		c0.623,0.186,0.771,0.627,0.535,1.434L112.101,252.3L112.101,252.3z"/>
	<polygon fill="#FFFFFF" points="98.357,258.354 100.25,253.951 98.284,253.107 97.22,255.58 92.96,253.75 94.805,249.447 
		99.229,251.348 100.024,249.487 95.603,247.587 97.244,243.766 101.368,245.541 100.36,247.89 102.288,248.719 104.135,244.429 
		94.693,240.367 93.855,242.316 95.033,242.82 90.746,252.796 89.567,252.293 88.738,254.228 98.357,258.354 	"/>
	<polygon fill="#FFFFFF" points="91.957,241.507 93.012,239.661 90.21,238.061 81.626,247.076 85.018,235.096 82.229,233.502 
		81.179,235.344 82.288,235.979 78.86,248.944 81.397,250.394 90.847,240.871 91.957,241.507 	"/>
	<polygon fill="#FFFFFF" points="71.965,244.642 73.192,242.933 72.136,242.178 78.461,233.352 79.519,234.111 80.752,232.379 
		76.697,229.479 75.464,231.204 76.506,231.952 70.181,240.777 69.138,240.033 67.915,241.734 71.965,244.642 	"/>
	<path fill="#FFFFFF" d="M73.66,229.938l1.393-1.602l-2.657-2.302l-5.831,6.713c-0.425,0.491-0.886,1.104-1.354,1.853l3.021-12.189
		l-2.871-2.492l-1.388,1.601l0.967,0.838l-7.121,8.2l-0.968-0.841l-1.376,1.589l2.649,2.303l5.821-6.701
		c0.428-0.484,0.897-1.116,1.385-1.884l-2.865,12.356l1.732,1.504l8.498-9.786L73.66,229.938L73.66,229.938z"/>
	<path fill="#FFFFFF" d="M62.448,220.069l1.589-1.399l-2.335-2.651l-8.81,7.76c-0.614,0.543-1.107,0.62-1.535,0.132l-1.994-2.267
		c-0.431-0.485-0.281-0.95,0.34-1.497l8.806-7.751l-2.449-2.783l-1.594,1.399l0.86,0.977l-7.317,6.445
		c-1.477,1.299-1.6,3.037-0.389,4.411l2.212,2.511c1.224,1.392,2.961,1.489,4.44,0.187l7.317-6.441L62.448,220.069L62.448,220.069z"
		/>
	<path fill="#FFFFFF" d="M48.911,203.368l1.836-1.062l-1.765-3.043l-7.692,4.465c-0.561,0.326-1.194,0.76-1.884,1.318l6.802-10.559
		l-1.909-3.282l-1.83,1.062l0.641,1.104l-9.387,5.457l-0.646-1.104l-1.813,1.05l1.766,3.043l7.673-4.459
		c0.562-0.328,1.209-0.77,1.916-1.336l-6.705,10.768l1.152,1.98l11.205-6.508L48.911,203.368L48.911,203.368z"/>
	<path fill="#FFFFFF" d="M34.164,189.171l-1.238-2.898l6.684-1.104L34.164,189.171L34.164,189.171z M29.875,196.361l1.933-0.826
		l-0.462-1.089l10.595-8.236l-1.364-3.197l-13.286,1.925l-0.449-1.049l-1.933,0.821l1.155,2.705l4.816-0.829l1.625,3.814
		l-3.918,2.93L29.875,196.361L29.875,196.361z"/>
	<path fill="#FFFFFF" d="M36.722,179.013l2.035-0.59l-0.986-3.376l-8.539,2.493c-0.621,0.181-1.343,0.449-2.145,0.822l9.14-8.617
		l-1.066-3.643l-2.038,0.589l0.361,1.232l-10.426,3.039l-0.356-1.226l-2.02,0.59l0.986,3.368l8.52-2.484
		c0.621-0.183,1.36-0.458,2.184-0.838l-9.093,8.841l0.641,2.201l12.44-3.628L36.722,179.013L36.722,179.013z"/>
	<polygon fill="#FFFFFF" points="19.808,166.354 24.447,165.618 24.079,163.304 21.516,163.711 20.747,158.862 32.752,164.036 
		34.659,163.734 33.12,153.998 28.521,154.727 28.887,157.068 31.395,156.673 32.122,161.273 20.148,156.051 18.226,156.354 
		19.808,166.354 	"/>
	<path fill="#FFFFFF" d="M20.992,150.091c-0.822,0.047-1.253-0.186-1.283-0.837l-0.142-2.861c-0.031-0.643,0.376-0.934,1.197-0.971
		l8.384-0.407c0.838-0.048,1.233,0.2,1.265,0.848l0.142,2.861c0.034,0.65-0.337,0.918-1.176,0.957L20.992,150.091L20.992,150.091z
		 M20.5,152.549l9.589-0.473c1.697-0.086,2.695-1.163,2.617-2.752l-0.21-4.272c-0.078-1.584-1.177-2.559-2.873-2.479l-9.589,0.473
		c-1.678,0.086-2.68,1.163-2.6,2.748l0.21,4.268C17.721,151.649,18.823,152.63,20.5,152.549L20.5,152.549z"/>
	<path fill="#FFFFFF" d="M27.269,137.416c-0.817-0.062-1.196-0.356-1.147-1.006l0.239-3.087l4.313,0.335l-0.236,3.083
		c-0.053,0.647-0.454,0.888-1.289,0.821L27.269,137.416L27.269,137.416z M26.969,139.808l2.585,0.2
		c1.694,0.128,2.817-0.8,2.939-2.377l0.578-7.484l-2.114-0.165l-0.098,1.276l-10.827-0.832l0.096-1.277l-2.094-0.165l-0.39,5.087
		l2.094,0.163l0.108-1.411l4.516,0.348l-0.266,3.428C23.957,138.41,25.026,139.658,26.969,139.808L26.969,139.808z"/>
	<path fill="#FFFFFF" d="M180.519,256.316c0.256,0.782,0.155,1.255-0.462,1.465l-2.724,0.896c-0.613,0.205-1-0.109-1.256-0.892
		l-2.636-7.97c-0.268-0.798-0.132-1.243,0.484-1.448l2.721-0.898c0.615-0.198,0.973,0.08,1.237,0.875L180.519,256.316
		L180.519,256.316z M183.014,256.138l-3.015-9.116c-0.534-1.611-1.845-2.287-3.349-1.786l-4.062,1.343
		c-1.504,0.498-2.155,1.815-1.62,3.436l3.016,9.108c0.526,1.593,1.832,2.271,3.341,1.771l4.062-1.341
		C182.891,259.052,183.541,257.727,183.014,256.138L183.014,256.138z"/>
	<path fill-rule="evenodd" clip-rule="evenodd" fill="#FFFFFF" d="M223.199,154.563c0.671-4.29,1.031-8.604,1.031-12.834
		c0-2.099-0.094-4.223-0.271-6.455l14.218-4.618l1.093-0.355l-0.147-1.135c-1.287-10.132-4.155-19.963-8.516-29.222l-0.523-1.106
		l-1.155,0.38l-13.976,4.542c-3.163-6.093-7.058-11.741-11.589-16.835l8.729-12.02l0.682-0.944l-0.814-0.833
		c-7.146-7.316-15.348-13.444-24.363-18.215l-1.058-0.56l-0.709,0.969l-8.671,11.929c-6.299-2.997-12.98-5.179-19.887-6.496V45.984
		v-1.197l-1.183-0.175c-4.732-0.691-9.552-1.045-14.329-1.045c-5.355,0-10.771,0.444-16.093,1.318l-1.156,0.19v1.178v14.839
		c-6.709,1.429-13.234,3.713-19.432,6.794l-8.641-11.893l-0.718-0.984l-1.069,0.585c-8.954,4.906-17.062,11.156-24.104,18.577
		l-0.789,0.835l0.673,0.931l8.786,12.088c-4.274,4.967-7.934,10.413-10.898,16.216l-13.951-4.534l-1.169-0.375l-0.513,1.111
		c-4.307,9.273-7.117,19.124-8.354,29.272l-0.138,1.135l1.084,0.351l14.246,4.629c-0.153,2.104-0.232,4.05-0.232,5.899
		c0,4.06,0.325,8.184,0.945,12.3l-13.976,4.539l-1.159,0.372l0.226,1.205c1.909,10.042,5.364,19.682,10.271,28.646l0.551,1.009
		l1.089-0.354l14.223-4.624c2.979,4.85,6.475,9.402,10.416,13.572l-8.667,11.931l-0.705,0.973l0.86,0.834
		c7.344,7.127,15.698,13.049,24.829,17.58l1.049,0.519l0.688-0.944l8.736-12.031c5.11,2.241,10.427,3.958,15.843,5.112V237.2v1.179
		l1.156,0.193c5.312,0.872,10.725,1.316,16.093,1.316c4.771,0,9.593-0.352,14.325-1.041l1.187-0.18v-1.188v-14.771
		c5.585-1.064,11.042-2.704,16.256-4.876l8.773,12.078l0.683,0.934l1.039-0.499c9.201-4.396,17.646-10.183,25.093-17.209
		l0.883-0.835l-0.713-0.983l-8.636-11.883c4.222-4.303,7.958-9.05,11.124-14.136l14.24,4.624l1.086,0.356l0.55-0.999
		c4.961-8.942,8.477-18.566,10.438-28.601l0.236-1.201l-1.162-0.381L223.199,154.563L223.199,154.563z M225.766,186.936
		l-14.154-4.598l-1.047-0.345l-0.566,0.942c-3.379,5.584-7.465,10.759-12.122,15.387l-0.846,0.833l0.697,0.957l8.589,11.826
		c-6.736,6.196-14.279,11.37-22.465,15.397l-8.731-12.011l-0.655-0.907l-1.016,0.445c-5.666,2.462-11.659,4.257-17.806,5.338
		l-1.14,0.197v1.163v14.7c-4.225,0.559-8.502,0.861-12.744,0.861c-4.828,0-9.694-0.384-14.481-1.121v-14.756v-1.135l-1.117-0.221
		c-5.956-1.182-11.803-3.073-17.383-5.612l-1.028-0.465l-0.665,0.915l-8.692,11.965c-8.119-4.151-15.58-9.438-22.226-15.729
		l8.628-11.867l0.687-0.947l-0.816-0.836c-4.382-4.504-8.222-9.503-11.405-14.852l-0.565-0.946l-1.055,0.337l-14.144,4.598
		c-4.29-8.062-7.379-16.674-9.199-25.64l13.903-4.511l1.132-0.365l-0.191-1.178c-0.716-4.349-1.084-8.732-1.084-13.028
		c0-2.091,0.104-4.304,0.31-6.766l0.092-1.089l-1.046-0.343l-14.173-4.605c1.218-9.06,3.724-17.859,7.461-26.197l13.88,4.508
		l1.141,0.37l0.528-1.074c3.117-6.318,7.071-12.215,11.765-17.522l0.732-0.831l-0.65-0.897l-8.733-12.023
		c6.37-6.558,13.616-12.145,21.565-16.631l8.597,11.829l0.697,0.965l1.061-0.548c6.622-3.415,13.647-5.874,20.879-7.307l1.117-0.221
		V62.21V47.449c4.799-0.728,9.663-1.115,14.481-1.115c4.249,0,8.527,0.3,12.744,0.864v14.699v1.16l1.14,0.204
		c7.445,1.308,14.626,3.654,21.349,6.975l1.05,0.517l0.685-0.945l8.625-11.87c8.005,4.37,15.33,9.847,21.803,16.306l-8.683,11.951
		l-0.666,0.916l0.763,0.834c4.957,5.411,9.144,11.504,12.465,18.112l0.531,1.063l1.132-0.368l13.903-4.519
		c3.789,8.329,6.352,17.113,7.611,26.151l-14.147,4.596l-1.05,0.341l0.102,1.104c0.231,2.554,0.348,4.944,0.348,7.305
		c0,4.463-0.395,9.024-1.169,13.556l-0.202,1.178l1.135,0.373l13.887,4.511C233.242,170.292,230.099,178.885,225.766,186.936
		L225.766,186.936z"/>
	<path fill-rule="evenodd" clip-rule="evenodd" fill="#FFFFFF" d="M160.907,89.513c-2.264,0.509-4.062-0.347-4.764-1.26
		c-0.702-0.909,0.21-3.714,0.98-3.572c0.775,0.141,0.069,0.632-0.144,1.892c-0.205,1.26,0.562,1.611,0.562,1.611
		c7.217-5.462,1.612-7.147,1.612-7.147c1.961-2.308,0.845-5.742,0.845-5.742c-4.488,1.471-4.559,5.045-4.559,5.045
		c-1.051-1.681-3.922-0.631-4.62,0.98c-0.705,1.608-0.557,6.092-0.557,6.092c2.866,0.633,2.235-3.15,3.286-3.29
		c1.05-0.14,1.683,3.502-3.221,4.412c-4.905,0.91-6.168-1.891-6.723-3.434c-0.562-1.538,1.26-2.874,1.678-0.77
		c0.419,2.103,2.103,2.87,2.103,2.87c-0.63-1.536,1.892-3.921,1.683-6.583c-0.209-2.66-4.764-1.258-4.764-1.258
		c0.577-1.315,0.356-2.674-0.145-3.86c-0.296-0.701-0.682-1.341-1.061-1.878V71.06h2.06v-2.697h-2.06v-1.577h-2.691v1.577h-2.059
		v2.697h2.059v2.66c-0.355,0.519-0.716,1.119-0.998,1.779c-0.497,1.187-0.712,2.545-0.138,3.86c0,0-4.55-1.402-4.764,1.258
		c-0.208,2.662,2.312,5.047,1.684,6.583c0,0,1.681-0.768,2.103-2.87c0.417-2.104,2.237-0.769,1.679,0.77
		c-0.563,1.543-1.821,4.344-6.725,3.434c-4.901-0.91-4.268-4.552-3.221-4.412c1.051,0.14,0.42,3.923,3.295,3.29
		c0,0,0.135-4.483-0.566-6.092c-0.698-1.611-3.571-2.661-4.622-0.98c0,0-0.066-3.574-4.551-5.045c0,0-1.122,3.435,0.84,5.742
		c0,0-5.603,1.686,1.614,7.147c0,0,0.768-0.352,0.557-1.611c-0.212-1.26-0.908-1.751-0.136-1.892
		c0.767-0.142,1.676,2.663,0.979,3.572c-0.7,0.913-2.503,1.769-4.766,1.26c-4.988-1.119-1.279-9.035-7.845-9.805
		c0,0,3.492,8.455,7.684,13.52h38.557c4.19-5.064,7.683-13.52,7.683-13.52C162.187,80.478,165.891,88.394,160.907,89.513
		L160.907,89.513z"/>
	<path fill-rule="evenodd" clip-rule="evenodd" fill="#FFFFFF" d="M155.941,115.522c-0.771-0.091-2.039-0.455-2.391-1.011
		c0.279-0.599,0.674-1.768,0.674-3.124c0-0.746-0.124-1.541-0.484-2.295c-0.287-0.81-0.849-1.395-1.627-1.715
		c-0.57-0.321-1.199-0.487-1.857-0.487c-2.131,0-3.873,1.747-3.873,3.872c0,1.432,0.811,2.712,2.059,3.386
		c-0.008,0.023-0.008,0.023-0.011,0.039c-0.317,0.025-1.399,0.114-1.399,0.114l-0.07,0.217c-0.007,0.032-0.051,0.182-0.051,0.382
		c0,0.194,0.039,0.419,0.176,0.647c0.073,0.123,0.22,0.244,0.414,0.35c-0.069,0.091-0.073,0.123-0.112,0.189
		c-0.278,0.002-1.547,0.071-1.547,0.071l-0.021,0.293c0,0.029,0,0.062,0,0.106c0,0.312,0.091,0.734,0.396,1.021
		c-0.045,0.066-0.07,0.087-0.109,0.13c-0.241,0-1.112,0-1.12,0c-0.003-0.006-0.532-0.104-0.778-0.142
		c-0.149-0.176-1.087-1.313-1.189-1.436c-0.261-0.984-0.359-1.748-0.359-2.289c0-1.161,0.399-1.467,0.399-1.479
		c0.994-0.382,1.225-0.75,1.262-0.977c0.146-0.297,0.246-0.604,0.246-0.894c0-0.234-0.062-0.48-0.169-0.711
		c-0.091-0.21-0.222-0.39-0.38-0.557v-0.01c-0.585-0.608-1.443-0.977-2.034-0.979c-0.245,0-0.56,0.045-0.634,0.314
		c-0.052,0.146-0.189,0.245-0.356,0.227c-0.153-0.01-0.289-0.131-0.306-0.294c-0.009-0.032-0.08-0.554-0.528-1.09
		c-0.067-0.049-0.118-0.116-0.193-0.153c-0.773-0.409-1.812-0.317-2.593,0.215c-0.83,0.572-1.221,1.549-1.093,2.687l0.083,0.682
		l0.496-0.491c0.638-0.646,2.163,0.503,2.783,1.054c-0.03,0.29-0.196,3.282-0.198,3.504c-0.975,0.988-2.023,2.298-2.321,2.676
		c-0.19,0.027-0.829,0.147-0.829,0.147s-0.826-0.006-1.066-0.006c-0.053-0.043-0.061-0.063-0.11-0.13
		c0.302-0.287,0.396-0.709,0.396-1.021c0-0.044,0-0.077-0.003-0.106l-0.024-0.293c0,0-1.26-0.069-1.533-0.071
		c-0.04-0.066-0.065-0.099-0.118-0.189c0.196-0.105,0.343-0.227,0.418-0.35c0.131-0.229,0.17-0.453,0.17-0.647
		c0-0.2-0.042-0.35-0.053-0.382l-0.061-0.217c0,0-1.085-0.089-1.409-0.114c-0.005-0.016-0.005-0.016-0.015-0.039
		c1.256-0.674,2.065-1.954,2.065-3.386c0-2.125-1.732-3.872-3.883-3.872c-0.646,0-1.283,0.166-1.877,0.505
		c-0.759,0.303-1.307,0.888-1.63,1.74c-0.335,0.727-0.463,1.511-0.463,2.25c0,1.347,0.407,2.527,0.688,3.126
		c-0.354,0.556-1.631,0.92-2.397,1.011l-0.376,0.049l0.091,0.38c0.353,1.45,1.547,1.979,3.437,1.533
		c0.301-0.079,0.592-0.246,0.864-0.475c0.153,0.215,0.267,0.382,0.354,0.484c-0.025,0.229-0.314,3.203-0.314,3.203
		c-0.103,0.702-1.736,1.126-2.517,1.23l-0.378,0.049l0.086,0.362c0.365,1.465,1.569,1.992,3.438,1.549
		c1.055-0.256,1.833-1.341,2.348-3.147c0.044,0.062,0.071,0.087,0.101,0.121c-0.057,0.663-0.343,4.344-0.496,5.395
		c-0.094,0.699-1.74,1.139-2.516,1.239l-0.379,0.043l0.092,0.372c0.369,1.447,1.543,1.988,3.437,1.533
		c2.118-0.498,2.699-4.187,2.85-5.648c0,0.345,0,4.438,0,4.438s0.367,0.053,0.433,0.061c0,0.037-0.005,0.062-0.005,0.104
		c0,0.076,0.005,0.159,0.013,0.234c-0.569,1.229-1.238,2.738-1.55,3.411c-2.033-0.318-3.82,0.744-3.899,0.798l0.764,1.264
		c0.012-0.008,0.626-0.366,1.467-0.55c-0.488,0.475-0.925,1.029-1.085,1.608l1.425,0.394c0.176-0.624,1.351-1.572,2.141-2.022
		c0.064-0.054,0.132-0.098,0.181-0.164c0.394-0.104,1.585-0.147,2.711-0.106l0.067-1.486c-0.86-0.031-1.516-0.018-2.019,0.006
		l1.227-2.715c0.015-0.018,0.05-0.031,0.067-0.039c0.159,0.093,0.506,0.297,0.506,0.297s0.822-0.297,1.126-0.417
		c0.097,0.201,0.244,0.661,0.244,1.744c0,0.502-0.036,1.132-0.114,1.924c-0.099,0.915-0.45,1.6-1.037,2.045
		c-1.205,0.847-3.013,0.458-3.032,0.451l-0.655-0.126l0.27,0.599c0.537,1.253,1.3,1.995,2.217,2.177
		c0.87,0.17,1.677-0.168,2.238-0.523c-0.016,0.183-0.039,0.358-0.039,0.528c0,1.778,1.172,3.123,1.237,3.19l0.244,0.281l0.244-0.277
		c0.073-0.067,1.272-1.426,1.272-3.215c0-0.156-0.02-0.337-0.05-0.508c0.566,0.355,1.381,0.693,2.244,0.523
		c0.93-0.182,1.67-0.924,2.225-2.177l0.258-0.599l-0.646,0.126c-0.011,0.007-1.828,0.396-3.021-0.451
		c-0.599-0.445-0.965-1.13-1.05-2.045c-0.08-0.792-0.119-1.422-0.119-1.924c0-1.083,0.154-1.543,0.24-1.744
		c0.314,0.12,1.139,0.417,1.139,0.417s0.193-0.116,0.354-0.216l1.294,2.667c-0.502-0.018-1.144-0.031-1.97,0l0.059,1.486
		c1.181-0.047,2.438,0.008,2.766,0.118c0.039,0.055,0.077,0.11,0.126,0.152c0.785,0.45,1.973,1.398,2.144,2.022l1.437-0.394
		c-0.162-0.579-0.603-1.134-1.091-1.608c0.827,0.184,1.44,0.542,1.457,0.55l0.767-1.264c-0.085-0.062-1.88-1.123-3.92-0.792
		c-0.295-0.608-0.936-1.924-1.501-3.091c0.069-0.173,0.092-0.363,0.092-0.561c0-0.042,0-0.067,0-0.104
		c0.051-0.008,0.421-0.061,0.421-0.061s0-4.094,0-4.438c0.162,1.462,0.742,5.15,2.862,5.648c1.868,0.455,3.054-0.086,3.431-1.533
		l0.093-0.372l-0.388-0.043c-0.775-0.101-2.408-0.54-2.516-1.239c-0.144-1.051-0.427-4.731-0.492-5.395
		c0.027-0.034,0.065-0.059,0.097-0.121c0.526,1.807,1.302,2.892,2.341,3.147c1.892,0.443,3.077-0.084,3.45-1.549l0.093-0.362
		l-0.381-0.049c-0.782-0.104-2.413-0.528-2.52-1.23c0,0-0.251-2.614-0.309-3.203c0.069-0.103,0.201-0.27,0.353-0.484
		c0.274,0.229,0.554,0.396,0.863,0.475c1.889,0.445,3.071-0.083,3.435-1.533l0.098-0.38L155.941,115.522L155.941,115.522z
		 M145.805,133.296L145.805,133.296c0,0,0,0,0.002,0.006L145.805,133.296L145.805,133.296z M144.758,109.042l0.421,0.242l0.75-1.286
		l-0.89-0.519l0.523-0.887l-1.273-0.74l-0.521,0.878l-0.887-0.524l-0.755,1.28l0.17,0.105
		C143.177,107.713,144.161,108.246,144.758,109.042L144.758,109.042z"/>
	<path fill-rule="evenodd" clip-rule="evenodd" fill="#FFFFFF" d="M117.485,134.04c0.596,1.955,1.283,4.284,1.344,4.476
		c0.148,0.16,1.914,2.206,2.883,3.332l0.799-0.17l0.278-3.488C122.333,137.834,119.369,135.517,117.485,134.04L117.485,134.04z
		 M115.379,137.537c0-0.145-0.114-0.253-0.255-0.253c-0.128,0-0.239,0.108-0.239,0.253c0,0.123,0.111,0.231,0.239,0.231
		C115.265,137.769,115.379,137.66,115.379,137.537L115.379,137.537z M106.856,129.509l-5.929-4.778l-2.675-0.407l1.13,2.569
		l5.791,4.837L106.856,129.509L106.856,129.509z M110.325,138.446c0,0,2.578-1.461,2.906-1.646c0.142-0.245,0.539-0.952,0.657-1.169
		c0-0.168,0.01-0.431,0.025-0.804c-0.566-0.148-1.236-0.309-1.758-0.448c-0.423,0.684-1.932,3.158-1.932,3.158l-3.927,0.824
		l-0.302-1.459c0,0,0.869-0.177,1.735-0.356l-0.026-0.021l1.376-1.591l-3.854-3.173l-2.911,3.841l3.283,6.167
		C107.075,140.722,110.271,138.469,110.325,138.446L110.325,138.446z M115.656,133.113l1.109-1.524l5.359,4.193l-2.213-5.685
		l-4.118-1.015c2.943-1.318,5.01-4.262,5.01-7.7c0-4.656-3.779-8.43-8.435-8.43c-4.646,0-8.432,3.773-8.432,8.43
		c0,3.438,2.066,6.382,5.011,7.7l-1.526-0.219l-0.502,0.67l4.064,3.197l1.292-1.502l1.127,0.954l-0.695,0.807l2.731,0.691
		l-0.082,2.148c0.843,0.117,1.506,0.83,1.506,1.707c0,0.937-0.777,1.726-1.739,1.726c-0.659,0-1.235-0.397-1.529-0.962
		c-0.867,0.484-2.484,1.396-2.484,1.396c-0.01,0-4.638,3.264-5.314,3.744l-0.184,2.542l-1.055,13.264h15.864l0.356-11.927
		l0.11-4.165l-3.386-3.907L115.656,133.113L115.656,133.113z M113.945,122.426c0.481-0.817,0.933-1.862,0.935-2.191
		c0-1.108-0.991-2-2.214-2c-1.227,0-2.225,0.892-2.225,2h-2.688c0-2.586,2.194-4.687,4.913-4.687c2.713,0,4.915,2.101,4.915,4.687
		c0,1.262-1.012,3.062-1.32,3.579L113.945,122.426L113.945,122.426z"/>
	<path fill-rule="evenodd" clip-rule="evenodd" fill="#FFFFFF" d="M165.101,138.985c0.012,0.748,0.031,1.688,0.035,2.429
		c0.736-0.009,1.677-0.018,2.429-0.03c-0.014-0.735-0.022-1.678-0.022-2.418C166.782,138.974,165.854,138.974,165.101,138.985
		L165.101,138.985z M177.55,131.46l1.45,1.405l3.119-3.156l-1.445-1.411l-1.562-0.091l0.841-0.888l-1.135-1.121l-3.857,4.187
		l-0.426-0.408c-0.581-0.226-2.953-1.173-3.193-1.271c-0.287,0.012-4.356,0.154-4.512,0.162c-0.132,0.043-2.666,0.737-3.391,0.935
		c-0.104,0.821-0.195,1.682-0.195,1.7l-1.569,10.551l0.016,2.559l0.155,14.832h15.961l-1.298-15.158l-0.276-3.817l-4.24-0.397
		l-2.976-1.104l0.046,3.901l-5.398,0.038l-0.047-5.384l3.935-0.046l-0.869-1.757l2.403-1.525l0.376-0.23
		c0,0,0.593,0.306,1.306,0.686l4.193-4.264l1.047,1.048l-3.849,3.916c0.445,0.229,0.834,0.422,0.997,0.507
		c0.372-0.204,0.995-0.542,0.995-0.542l0.709,1.306l-1.686,0.918c0,0-3.034-1.56-3.646-1.869c-0.288,0.188-0.535,0.347-0.931,0.591
		c0.247,0.492,0.461,0.913,0.589,1.186c0.458,0.167,2.988,1.102,3.14,1.15c0.112,0.017,2.334,0.232,4.093,0.395l2.248-0.185
		l-1.65-6.424l-0.996-0.963l1.426-1.476L177.55,131.46L177.55,131.46z M163.52,127.881c0.034,0.057,0.038,0.14,0.043,0.212
		c0.054,0.036,0.096,0.06,0.143,0.099l2.899-0.795l4.845-0.177l0.147-0.013l2.136,0.856c2.025-1.531,3.344-3.944,3.344-6.681
		c0-4.656-3.774-8.43-8.426-8.43c-4.666,0-8.434,3.773-8.434,8.43c0,0.226,0.027,0.435,0.039,0.654L163.52,127.881L163.52,127.881z
		 M169.085,115.548c2.708,0,4.918,2.101,4.918,4.687c0,1.262-1.011,3.062-1.325,3.579l-2.317-1.388
		c0.492-0.817,0.941-1.862,0.941-2.191c0-1.108-0.993-2-2.217-2c-1.218,0-2.217,0.892-2.217,2h-2.702
		C164.166,117.648,166.372,115.548,169.085,115.548L169.085,115.548z M162.054,128.831l-0.124-0.773
		c-0.503-0.882-1.859-3.299-2.79-4.992v7.661l-1.845,4.709l0.193,4.327l2.988,0.308c0.462-3.11,1.286-8.782,1.286-8.759
		C161.763,131.312,161.961,129.656,162.054,128.831L162.054,128.831z"/>
	<path fill-rule="evenodd" clip-rule="evenodd" fill="#FFFFFF" d="M139.954,183.275v1.036h-1.031v1.476h1.031v1.032h1.48v-1.032
		h1.027v-1.476h-1.027v-1.036H139.954L139.954,183.275z M147.977,185.888l-1.004,0.028l0.787-0.946l-1.148-0.95l-5.944,7.187
		l-5.942-7.187l-1.147,0.95l0.79,0.946l-1.142-0.028l-0.094,0.078l-1.464,1.193l2.833,3.423l1.563-1.271l0.179-1.127l3.465,4.178
		l-3.027,3.655l-5.344,0.522l0.609,6.353l6.378-0.598l-0.521-5.325l2.866-3.453l2.862,3.453l-0.518,5.325l6.374,0.598l0.612-6.353
		l-5.349-0.522l-3.022-3.651l3.465-4.187l0.182,1.132l1.551,1.271l2.845-3.423l-1.558-1.271H147.977L147.977,185.888z
		 M136.366,197.539c0.092,0.868,0.254,2.538,0.328,3.411c-0.87,0.085-2.535,0.252-3.409,0.329c-0.085-0.883-0.236-2.538-0.333-3.412
		C133.834,197.783,135.493,197.616,136.366,197.539L136.366,197.539z M144.97,197.539c0.866,0.077,2.53,0.244,3.418,0.326
		c-0.093,0.876-0.257,2.531-0.345,3.414c-0.864-0.077-2.54-0.244-3.413-0.329C144.713,200.077,144.884,198.407,144.97,197.539
		L144.97,197.539z"/>
	<path fill-rule="evenodd" clip-rule="evenodd" fill="#FFFFFF" d="M190.968,95.923H91.14v65.645
		c0,25.135,23.165,46.362,50.592,46.362c12.757,0,25.566-4.93,35.175-13.539c9.938-8.906,15.419-20.571,15.419-32.823V95.923
		H190.968L190.968,95.923z M173.931,170.257c0,1.066,0,3.64,0,3.64h-7.578c0,0,0-2.573,0-3.64c-1.313,0-2.888,0-4.198,0
		c0,1.066,0,3.64,0,3.64h-7.596c0,0,0-2.573,0-3.64c-1.322,0-2.868,0-4.206,0c0,1.066,0,3.64,0,3.64h-7.581c0,0,0-2.573,0-3.64
		c-1.323,0-2.89,0-4.209,0c0,1.066,0,3.64,0,3.64h-7.591c0,0,0-2.573,0-3.64c-1.325,0-2.876,0-4.205,0c0,1.066,0,3.64,0,3.64h-7.581
		c0,0,0-2.573,0-3.64c-1.32,0-2.884,0-4.199,0c0,1.066,0,3.64,0,3.64h-7.597c0,0,0-2.573,0-3.64c-1.354,0-4.187,0-5.555,0v4.469
		h2.13v13.321c-6.315-7.407-10.127-16.619-10.127-26.479c0,0,0-60.352,0-62.942c2.589,0,93.199,0,95.789,0
		c0,2.591,0,62.942,0,62.942c0,10.519-4.333,20.585-12.255,28.646v-15.488h2.123v-4.469
		C178.131,170.257,175.309,170.257,173.931,170.257L173.931,170.257z M120.831,200.689c-0.002-0.088-0.005-0.177-0.005-0.264
		c0-3.55,0.857-6.895,2.35-9.832c3.337-6.581,9.907-11.062,17.5-11.062c7.937,0,14.774,4.934,17.948,12.058
		c1.189,2.686,1.884,5.675,1.884,8.836c0,0.361-0.008,0.713-0.027,1.067c-5.961,2.434-12.364,3.739-18.749,3.739
		C134.294,205.232,127.188,203.586,120.831,200.689L120.831,200.689z M133.667,171.195c0.886,0,1.316,0,2.2,0
		c0-1.078,0-3.636,0-3.636h9.597c0,0,0,2.558,0,3.636c0.882,0,1.321,0,2.203,0c0-1.078,0-3.636,0-3.636h3.169v-14.235l2.885-3.709
		v-6.074h-4.209v3.636h-3.077v-3.636h-4.214v3.636h-3.059v-3.636h-4.206v3.636h-3.078v-3.636h-4.206v6.074l2.881,3.709v14.235h3.114
		C133.667,167.56,133.667,170.117,133.667,171.195L133.667,171.195z M169.046,171.195c0.872,0,1.318,0,2.198,0
		c0-1.078,0-3.636,0-3.636h1.348h4.78v-5.992h-15.97v5.992h7.644C169.046,167.56,169.046,170.117,169.046,171.195L169.046,171.195z
		 M110.089,171.195c0.881,0,1.313,0,2.192,0c0-1.078,0-3.636,0-3.636h7.645v-5.992h-15.961v5.992h6.124
		C110.089,167.56,110.089,170.117,110.089,171.195L110.089,171.195z"/>
	<path fill-rule="evenodd" clip-rule="evenodd" fill="#FFFFFF" d="M7.349,141.731c0-74.099,60.285-134.385,134.383-134.385
		c74.097,0,134.382,60.286,134.382,134.385c0,74.098-60.285,134.382-134.382,134.382C67.634,276.113,7.349,215.829,7.349,141.731
		L7.349,141.731z M4.665,141.731c0,75.574,61.49,137.057,137.066,137.057c75.577,0,137.063-61.482,137.063-137.057
		c0-75.577-61.486-137.065-137.063-137.065C66.155,4.666,4.665,66.154,4.665,141.731L4.665,141.731z"/>
</g>
</svg>
