<?xml version="1.0" encoding="UTF-8"?>
<!DOCTYPE svg PUBLIC "-//W3C//DTD SVG 1.1//EN" "http://www.w3.org/Graphics/SVG/1.1/DTD/svg11.dtd">
<!-- Creator: CorelDRAW 2017 -->
<svg xmlns="http://www.w3.org/2000/svg" xml:space="preserve" width="700px" height="700px" version="1.1" style="shape-rendering:geometricPrecision; text-rendering:geometricPrecision; image-rendering:optimizeQuality; fill-rule:evenodd; clip-rule:evenodd" viewBox="0 0 700 700">
 <defs>
  <!-- <style type="text/css">
   <![CDATA[
    .fil1 {fill:#00658C}
    .fil0 {fill:#00658C;fill-rule:nonzero}
   ]]>
  </style> -->
 </defs>
 <g id="Warstwa_x0020_1">
  <metadata id="CorelCorpID_0Corel-Layer"/>
  <g id="_2086220547392">
   <path class="fil0" d="M624.32 238.77l-3.12 -7.42 17.08 -2.74 -13.96 10.16zm-11.04 18.29l4.95 -2.08 -1.17 -2.79 27.16 -20.89 -3.44 -8.19 -33.95 4.76 -1.14 -2.7 -4.94 2.08 2.91 6.93 12.31 -2.06 4.1 9.76 -10.04 7.45 3.25 7.73z"/>
   <path class="fil0" d="M598.73 223.18l4.65 -2.68 -1.63 -2.83 8.08 -4.64c3.77,-2.16 4.78,-5.78 2.76,-9.29l-1.92 -3.35 13.6 0.8 2.23 3.89 4.7 -2.69 -3.79 -6.6 -20.12 -0.31 14.99 -8.61 -4.69 -8.17 -4.69 2.7 1.62 2.83 -24.04 13.82 -1.63 -2.84 -4.65 2.67 4.69 8.17 14.46 -8.31 3.99 6.93c0.82,1.44 0.28,2.54 -1.54,3.59l-11.76 6.75 4.69 8.17z"/>
   <path class="fil0" d="M585.7 187.97l6.77 -4.95c3.5,-2.57 4.1,-6.21 1.71,-9.47l-4.69 -6.42c-0.98,-1.34 -0.52,-2.52 1.17,-3.76l3.61 -2.64c1.73,-1.26 2.92,-1.29 3.9,0.05l4.69 6.42 -3.97 2.9 3.57 4.88 8.34 -6.1 -9.33 -12.75c-2.39,-3.27 -6.11,-3.81 -9.6,-1.26l-6.33 4.63c-3.5,2.56 -4.11,6.27 -1.72,9.54l4.66 6.38c0.98,1.34 0.56,2.49 -1.17,3.76l-3.98 2.91c-1.69,1.24 -2.96,1.32 -3.94,-0.02l-5.13 -7.01 4.81 -3.51 -3.72 -5.08 -9.13 6.68 9.93 13.58c2.39,3.27 6.08,3.77 9.55,1.24z"/>
   <path class="fil0" d="M586.8 146.23l3.89 -3.76 -6.23 -6.46 -16.34 15.78c-1.19,1.15 -2.5,2.61 -3.87,4.41l10.42 -30.33 -6.75 -6.98 -3.89 3.76 2.27 2.35 -19.95 19.27 -2.27 -2.35 -3.86 3.72 6.24 6.46 16.3 -15.75c1.19,-1.15 2.53,-2.64 3.94,-4.48l-10.04 30.79 4.06 4.21 23.81 -22.99 2.27 2.35zm5.21 -18.05l-4.2 -4.35 -8.43 2.58 3.36 3.47 9.27 -1.7z"/>
   <path class="fil0" d="M537.7 143.36l3.4 -4.16 -2.34 -1.91 14.2 -31.19 -6.87 -5.62 -27.77 20.12 -2.27 -1.85 -3.39 4.15 5.82 4.75 9.91 -7.58 8.2 6.69 -5.38 11.29 6.49 5.31zm1.18 -21.34l-6.23 -5.09 13.81 -10.42 -7.58 15.51z"/>
   <path class="fil0" d="M528.82 93.75l2.83 -4.62 -7.66 -4.68 -11.84 19.38c-0.87,1.41 -1.76,3.15 -2.64,5.24l2.45 -31.97 -8.28 -5.06 -2.83 4.62 2.79 1.7 -14.45 23.66 -2.79 -1.7 -2.8 4.58 7.66 4.68 11.81 -19.34c0.87,-1.42 1.79,-3.2 2.69,-5.34l-1.97 32.33 4.99 3.05 17.25 -28.24 2.79 1.71z"/>
   <polygon class="fil0" points="478.58,102.17 483.6,91.28 478.15,88.77 475.38,94.79 463.99,89.54 492.01,71.38 494.07,66.91 471.21,56.38 466.24,67.18 471.73,69.71 474.44,63.83 485.25,68.8 457.19,86.84 455.1,91.35 "/>
   <path class="fil0" d="M446.4 78.99c-0.67,1.98 -1.62,2.79 -3.19,2.26l-6.92 -2.35c-1.57,-0.54 -1.88,-1.77 -1.2,-3.76l6.9 -20.3c0.68,-2.03 1.64,-2.73 3.22,-2.2l6.92 2.36c1.57,0.53 1.86,1.66 1.17,3.68l-6.9 20.31zm5.37 3.47l7.88 -23.21c1.4,-4.11 -0.23,-7.5 -4.07,-8.8l-10.34 -3.51c-3.84,-1.31 -7.19,0.39 -8.59,4.5l-7.88 23.2c-1.38,4.07 0.25,7.46 4.08,8.76l10.35 3.51c3.83,1.3 7.19,-0.39 8.57,-4.45z"/>
   <path class="fil0" d="M420.54 54.01c-0.42,2.05 -1.29,2.92 -2.91,2.59l-7.75 -1.57 2.2 -10.83 7.74 1.57c1.63,0.33 2.1,1.42 1.68,3.52l-0.96 4.72zm5.96 1.51l1.32 -6.49c0.86,-4.25 -1.14,-7.39 -5.11,-8.2l-18.78 -3.81 -1.08 5.31 3.21 0.65 -5.52 27.17 -3.2 -0.65 -1.07 5.26 12.77 2.59 1.06 -5.26 -3.53 -0.71 2.29 -11.33 8.61 1.74c4.54,0.92 8.05,-1.4 9.03,-6.27z"/>
   <path class="fil0" d="M358.32 53.96l-8.04 -0.1 4.31 -16.76 3.73 16.86zm12.36 17.43l0.07 -5.36 -3.02 -0.04 -8.3 -33.26 -8.88 -0.11 -9.21 33.02 -2.92 -0.04 -0.07 5.37 7.51 0.1 3.03 -12.11 10.59 0.14 2.81 12.18 8.39 0.11z"/>
   <path class="fil0" d="M334.58 71.1l-0.59 -5.33 -3.24 0.36 -1.02 -9.26c-0.48,-4.32 -3.39,-6.7 -7.41,-6.25l-3.83 0.42 6.17 -12.14 4.46 -0.49 -0.6 -5.38 -7.56 0.83 -8.34 18.32 -1.89 -17.19 -9.36 1.03 0.6 5.38 3.25 -0.36 3.03 27.56 -3.25 0.36 0.59 5.34 9.36 -1.04 -1.83 -16.58 7.95 -0.87c1.65,-0.18 2.44,0.76 2.67,2.85l1.49 13.47 9.35 -1.03z"/>
   <polygon class="fil0" points="300.71,75.37 299.66,70.11 296.41,70.76 290.98,43.56 294.23,42.92 293.17,37.61 280.69,40.1 281.75,45.41 284.95,44.77 290.38,71.96 287.17,72.6 288.22,77.86 "/>
   <path class="fil0" d="M273.93 47.07l-1.59 -5.18 -8.58 2.64 6.68 21.71c0.49,1.58 1.2,3.4 2.18,5.44l-22.33 -23.01 -9.28 2.86 1.59 5.17 3.13 -0.96 8.15 26.5 -3.12 0.96 1.57 5.13 8.58 -2.64 -6.66 -21.66c-0.49,-1.58 -1.22,-3.45 -2.22,-5.54l22.91 22.89 5.6 -1.72 -9.73 -31.63 3.12 -0.96z"/>
   <polygon class="fil0" points="247.15,90.46 244.88,85.6 241.92,86.98 230.18,61.81 233.14,60.42 230.86,55.52 222.32,59.49 229.45,74.77 219.06,79.61 211.94,64.34 203.41,68.32 205.69,73.22 208.65,71.84 220.39,97.02 217.43,98.4 219.7,103.26 228.23,99.28 221.12,84.03 231.51,79.19 238.62,94.44 "/>
   <path class="fil0" d="M214.31 106.13l-6.3 -10.43 -4.63 2.8 3.52 5.83 -8.14 4.92c-1.42,0.86 -2.56,0.29 -3.64,-1.5l-11.09 -18.36c-1.1,-1.83 -1.02,-3.02 0.4,-3.87l8.14 -4.92 3.45 5.71 4.63 -2.8 -6.25 -10.34 -14.32 8.64c-3.46,2.1 -4.33,5.76 -2.09,9.47l12.68 20.98c2.21,3.67 5.85,4.61 9.32,2.52l14.32 -8.65z"/>
   <polygon class="fil0" points="189.39,121.84 181.85,112.2 177.55,115.56 181.78,120.98 172.44,128.27 165.08,118.86 174.77,111.29 171.59,107.22 161.9,114.78 155.37,106.42 164.4,99.37 168.42,104.51 172.64,101.2 165.3,91.8 144.62,107.95 147.95,112.22 150.53,110.21 167.6,132.06 165.02,134.07 168.33,138.3 "/>
   <polygon class="fil0" points="145.58,121.31 138,113.59 116.73,134.46 124.31,142.18 128.39,138.19 124.6,134.33 128.95,130.06 148.38,149.84 145.83,152.34 149.59,156.17 159.13,146.8 155.37,142.97 152.8,145.5 133.37,125.72 137.72,121.45 141.51,125.3 "/>
   <polygon class="fil0" points="141.02,165.03 136.93,161.55 134.78,164.08 113.66,146.11 115.81,143.59 111.68,140.08 103.44,149.78 107.56,153.29 109.68,150.8 130.8,168.76 128.69,171.25 132.77,174.72 "/>
   <polygon class="fil0" points="128.9,179.58 118.2,172.08 115.01,176.63 121.31,181.05 115.43,189.44 92.73,173.52 94.77,170.61 90.34,167.5 82.89,178.13 87.32,181.23 89.2,178.56 111.91,194.47 110.03,197.15 114.42,200.22 "/>
   <path class="fil0" d="M100.66 206.54c1.85,0.98 2.5,2.04 1.72,3.51l-3.43 6.46c-0.78,1.46 -2.05,1.56 -3.9,0.58l-18.93 -10.07c-1.89,-1.01 -2.43,-2.07 -1.65,-3.53l3.43 -6.46c0.78,-1.46 1.94,-1.57 3.83,-0.56l18.93 10.07zm4.29 -4.74l-21.64 -11.51c-3.83,-2.04 -7.44,-0.97 -9.34,2.61l-5.13 9.64c-1.9,3.58 -0.77,7.16 3.06,9.2l21.64 11.51c3.79,2.01 7.4,0.94 9.3,-2.63l5.13 -9.65c1.9,-3.57 0.77,-7.15 -3.02,-9.17z"/>
   <path class="fil0" d="M70.98 228.55c1.94,0.76 2.65,1.76 2.05,3.31l-2.86 7.36 -10.3 -3.99 2.86 -7.37c0.6,-1.54 1.76,-1.83 3.75,-1.05l4.5 1.74zm2.49 -5.62l-6.17 -2.4c-4.04,-1.57 -7.48,-0.13 -8.94,3.65l-6.94 17.86 5.05 1.96 1.18 -3.04 25.85 10.03 -1.18 3.05 5 1.94 4.71 -12.14 -5 -1.95 -1.31 3.37 -10.77 -4.18 3.17 -8.19c1.68,-4.32 -0.02,-8.17 -4.65,-9.96z"/>
   <polygon class="fil0" points="632.82,317.53 627.41,317.85 627.82,324.95 644.03,331.54 628.69,340 629.14,347.69 634.54,347.38 634.35,344.12 649.86,334.52 661.53,333.85 661.74,337.35 667.09,337.04 666.34,324 660.98,324.31 661.18,327.71 649.21,328.41 633,320.8 "/>
   <path class="fil0" d="M667.49 354.34l-22.07 -0.92 -0.51 12.23 5.4 0.23 0.27 -6.34 11.31 0.48 -0.4 9.5c-0.07,1.66 -1.17,2.29 -3.27,2.21l-21.42 -0.9c-2.14,-0.09 -3.09,-0.81 -3.02,-2.47l0.4 -9.5 6.32 0.26 0.23 -5.51 -11.73 -0.49 -0.7 16.82c-0.17,4.04 2.4,6.78 6.73,6.97l24.49 1.02c4.29,0.18 7.08,-2.34 7.25,-6.38l0.72 -17.21z"/>
   <path class="fil0" d="M656 393.03c2.07,0.33 3.03,1.13 2.76,2.77l-1.15 7.22c-0.27,1.64 -1.43,2.14 -3.51,1.81l-21.17 -3.39c-2.11,-0.34 -2.96,-1.17 -2.7,-2.81l1.16 -7.22c0.26,-1.64 1.32,-2.11 3.43,-1.77l21.18 3.39zm2.52 -5.87l-24.2 -3.88c-4.29,-0.68 -7.35,1.49 -7.99,5.49l-1.73 10.79c-0.64,3.99 1.59,7.02 5.87,7.71l24.2 3.88c4.24,0.68 7.31,-1.5 7.95,-5.5l1.73 -10.78c0.64,-4 -1.59,-7.03 -5.83,-7.71z"/>
   <polygon class="fil0" points="659.77,420.21 647.14,416.87 645.72,422.24 653.16,424.21 650.54,434.11 623.74,427.01 624.65,423.57 619.41,422.19 616.09,434.73 621.33,436.11 622.16,432.95 648.97,440.05 648.13,443.21 653.32,444.59 "/>
   <path class="fil0" d="M639.57 457.58c1.97,0.75 2.74,1.72 2.16,3.27l-2.6 6.84c-0.59,1.55 -1.83,1.81 -3.79,1.07l-20.05 -7.61c-2,-0.76 -2.67,-1.74 -2.08,-3.3l2.59 -6.84c0.59,-1.55 1.73,-1.79 3.73,-1.03l20.04 7.6zm3.66 -5.23l-22.91 -8.7c-4.06,-1.54 -7.51,-0.03 -8.94,3.76l-3.88 10.21c-1.43,3.79 0.14,7.2 4.2,8.74l22.91 8.69c4.02,1.53 7.46,0.02 8.9,-3.77l3.87 -10.21c1.44,-3.79 -0.14,-7.2 -4.15,-8.72z"/>
   <path class="fil0" d="M607.54 471.22l-4.75 -2.6 -4.32 7.86 19.91 10.94c1.45,0.8 3.23,1.61 5.35,2.39l-32.05 -0.97 -4.67 8.5 4.74 2.61 1.58 -2.87 24.3 13.36 -1.57 2.86 4.7 2.59 4.32 -7.87 -19.86 -10.91c-1.46,-0.8 -3.28,-1.64 -5.45,-2.44l32.38 0.48 2.82 -5.13 -29.01 -15.93 1.58 -2.87z"/>
   <polygon class="fil0" points="614.96,525.38 610.65,522.18 608.71,524.8 586.41,508.24 588.36,505.62 584.01,502.39 578.4,509.94 591.92,519.99 585.09,529.19 571.56,519.14 565.95,526.7 570.29,529.93 572.24,527.31 594.54,543.87 592.59,546.49 596.9,549.69 602.51,542.14 589,532.1 595.84,522.9 609.35,532.94 "/>
   <path class="fil0" d="M589.93 557.94l-9.02 -8.19 -3.64 4.01 5.04 4.58 -6.39 7.04c-1.11,1.23 -2.37,1.02 -3.92,-0.39l-15.87 -14.42c-1.59,-1.44 -1.85,-2.6 -0.73,-3.83l6.39 -7.04 4.94 4.49 3.64 -4.01 -8.95 -8.13 -11.25 12.39c-2.72,2.99 -2.5,6.75 0.71,9.67l18.14 16.47c3.18,2.89 6.94,2.74 9.66,-0.25l11.25 -12.39z"/>
   <polygon class="fil0" points="566.35,582.52 558.39,573.22 554.24,576.77 558.71,582 549.7,589.7 541.94,580.62 551.28,572.63 547.92,568.7 538.58,576.69 531.68,568.62 540.39,561.17 544.63,566.13 548.71,562.64 540.95,553.57 521.01,570.63 524.53,574.74 527.01,572.62 545.03,593.69 542.55,595.82 546.03,599.89 "/>
   <polygon class="fil0" points="523.22,582.58 517.21,573.58 492.43,590.14 498.44,599.13 503.19,595.96 500.18,591.47 505.25,588.08 520.66,611.14 517.7,613.11 520.68,617.57 531.79,610.15 528.81,605.69 525.81,607.69 510.4,584.64 515.47,581.25 518.48,585.75 "/>
   <polygon class="fil0" points="478.3,611.22 473.47,600.3 450.23,610.58 452.42,615.53 455.41,614.21 466.63,639.57 463.64,640.89 465.81,645.8 477.81,640.49 475.64,635.59 472.25,637.08 467.51,626.38 479.15,621.23 476.97,616.28 465.32,621.43 461.03,611.73 470.36,607.6 472.99,613.57 "/>
   <polygon class="fil0" points="400.52,630.11 399.83,624.74 392.77,625.64 387.32,642.26 377.82,627.55 370.17,628.53 370.86,633.9 374.1,633.48 384.74,648.28 386.23,659.89 382.74,660.33 383.42,665.65 396.39,664 395.71,658.68 392.32,659.11 390.8,647.22 397.27,630.52 "/>
   <polygon class="fil0" points="366.8,639.46 366.71,628.64 336.91,628.88 337,639.7 342.71,639.65 342.66,634.25 348.76,634.2 348.99,661.92 345.42,661.95 345.47,667.32 358.83,667.21 358.79,661.84 355.18,661.87 354.95,634.15 361.05,634.1 361.09,639.5 "/>
   <polygon class="fil0" points="329.05,666.74 329.52,661.4 326.21,661.11 328.63,633.48 331.94,633.77 332.41,628.38 319.73,627.27 319.25,632.66 322.51,632.95 320.09,660.57 316.84,660.29 316.37,665.63 "/>
   <path class="fil0" d="M307.27 657.8l1.54 -8.25c0.8,-4.26 -1.26,-7.33 -5.24,-8.07l-7.81 -1.46c-1.63,-0.31 -2.11,-1.49 -1.72,-3.54l0.82 -4.4c0.39,-2.1 1.24,-2.94 2.87,-2.63l7.82 1.46 -0.91 4.83 5.95 1.11 1.9 -10.15 -15.54 -2.91c-3.98,-0.74 -7.06,1.41 -7.85,5.67l-1.44 7.7c-0.8,4.27 1.3,7.39 5.27,8.14l7.77 1.45c1.63,0.3 2.11,1.43 1.72,3.54l-0.9 4.85c-0.39,2.06 -1.26,2.99 -2.89,2.68l-8.53 -1.59 1.09 -5.85 -6.18 -1.16 -2.08 11.12 16.54 3.1c3.98,0.74 7.01,-1.42 7.8,-5.64z"/>
   <path class="fil0" d="M276.42 659.2l1.52 -5.15 -3.18 -0.94 2.1 -7.11c1.19,-4.02 0.49,-6.31 -3.05,-8.43 3.51,0.53 5.57,-0.59 6.46,-3.62l1.76 -5.93c1.23,-4.16 -0.49,-7.46 -4.37,-8.61l-18.39 -5.44 -1.53 5.2 3.13 0.92 -7.86 26.59 -3.13 -0.93 -1.53 5.15 9.03 2.67 4.8 -16.23 7.72 2.28c1.63,0.49 1.89,1.68 1.3,3.69l-3.9 13.19 9.12 2.7zm-2.08 -26.85c-0.59,2 -1.54,2.79 -3.13,2.32l-7.58 -2.24 3.14 -10.6 7.57 2.25c1.59,0.47 1.97,1.6 1.36,3.65l-1.36 4.62z"/>
   <polygon class="fil0" points="239.24,647.81 244.07,636.56 239.06,634.41 236.34,640.73 225.45,636.05 230.17,625.07 241.46,629.92 243.5,625.17 232.21,620.32 236.4,610.57 246.93,615.1 244.35,621.09 249.28,623.2 254,612.24 229.89,601.88 227.75,606.85 230.75,608.14 219.8,633.62 216.8,632.33 214.68,637.26 "/>
   <polygon class="fil0" points="222.9,604.78 225.59,600.08 218.43,595.99 196.52,619.01 205.18,588.41 198.06,584.35 195.38,589.05 198.21,590.67 189.46,623.78 195.94,627.49 220.07,603.16 "/>
   <polygon class="fil0" points="171.86,612.8 174.98,608.43 172.29,606.5 188.44,583.96 191.13,585.9 194.29,581.49 183.94,574.08 180.79,578.48 183.44,580.38 167.29,602.92 164.63,601.02 161.51,605.38 "/>
   <path class="fil0" d="M176.18 575.24l3.55 -4.08 -6.78 -5.89 -14.89 17.15c-1.09,1.25 -2.26,2.82 -3.47,4.73l7.72 -31.12 -7.33 -6.37 -3.55 4.09 2.47 2.14 -18.18 20.94 -2.47 -2.14 -3.52 4.05 6.78 5.88 14.86 -17.11c1.09,-1.25 2.29,-2.86 3.53,-4.81l-7.31 31.55 4.42 3.84 21.7 -24.99 2.47 2.14z"/>
   <path class="fil0" d="M147.54 550.05l4.07 -3.58 -5.97 -6.77 -22.49 19.81c-1.57,1.39 -2.83,1.59 -3.93,0.34l-5.09 -5.78c-1.1,-1.25 -0.71,-2.43 0.87,-3.82l22.49 -19.81 -6.26 -7.1 -4.06 3.58 2.19 2.49 -18.68 16.46c-3.77,3.32 -4.09,7.76 -0.99,11.27l5.64 6.4c3.12,3.55 7.57,3.8 11.34,0.48l18.68 -16.46 2.19 2.49z"/>
   <path class="fil0" d="M112.99 507.39l4.68 -2.71 -4.51 -7.76 -19.64 11.4c-1.43,0.84 -3.05,1.94 -4.81,3.36l17.37 -26.95 -4.88 -8.4 -4.68 2.72 1.64 2.83 -23.97 13.93 -1.64 -2.83 -4.64 2.7 4.51 7.76 19.59 -11.39c1.44,-0.83 3.09,-1.96 4.9,-3.41l-17.12 27.49 2.94 5.06 28.62 -16.62 1.64 2.82z"/>
   <path class="fil0" d="M75.32 471.15l-3.16 -7.4 17.07 -2.83 -13.91 10.23zm-10.95 18.35l4.94 -2.11 -1.19 -2.78 27.06 -21.03 -3.48 -8.17 -33.93 4.93 -1.15 -2.69 -4.93 2.1 2.94 6.91 12.3 -2.12 4.16 9.74 -10.01 7.5 3.29 7.72z"/>
   <path class="fil0" d="M81.85 445.21l5.2 -1.52 -2.52 -8.61 -21.8 6.36c-1.59,0.47 -3.43,1.15 -5.48,2.11l23.33 -22 -2.72 -9.32 -5.19 1.52 0.91 3.13 -26.62 7.77 -0.91 -3.14 -5.15 1.51 2.51 8.61 21.76 -6.35c1.59,-0.46 3.47,-1.16 5.57,-2.13l-23.21 22.57 1.64 5.62 31.76 -9.27 0.92 3.14z"/>
   <polygon class="fil0" points="38.66,412.88 50.5,411.01 49.57,405.08 43.02,406.12 41.06,393.74 71.72,406.96 76.59,406.19 72.65,381.33 60.91,383.19 61.85,389.16 68.25,388.15 70.11,399.91 39.53,386.57 34.62,387.35 "/>
   <path class="fil0" d="M41.69 371.36c-2.1,0.1 -3.2,-0.48 -3.28,-2.14l-0.36 -7.3c-0.08,-1.66 0.96,-2.39 3.05,-2.5l21.42 -1.05c2.14,-0.1 3.14,0.53 3.23,2.19l0.35 7.3c0.09,1.66 -0.86,2.34 -2.99,2.45l-21.42 1.05zm-1.26 6.26l24.48 -1.2c4.34,-0.21 6.89,-2.98 6.69,-7.02l-0.54 -10.91c-0.19,-4.05 -3,-6.54 -7.34,-6.33l-24.48 1.2c-4.28,0.21 -6.83,2.97 -6.64,7.02l0.54 10.91c0.2,4.04 3.01,6.54 7.29,6.33z"/>
   <path class="fil0" d="M57.71 338.99c-2.08,-0.16 -3.05,-0.92 -2.92,-2.58l0.6 -7.87 11.02 0.85 -0.61 7.87c-0.12,1.66 -1.15,2.26 -3.28,2.1l-4.81 -0.37zm-0.76 6.1l6.6 0.51c4.32,0.33 7.2,-2.04 7.51,-6.07l1.47 -19.11 -5.4 -0.42 -0.25 3.26 -27.64 -2.13 0.25 -3.26 -5.35 -0.41 -1 12.98 5.35 0.41 0.27 -3.59 11.53 0.88 -0.68 8.76c-0.35,4.62 2.39,7.81 7.34,8.19z"/>
   <path class="fil0" d="M449.04 642.61c0.66,1.99 0.4,3.2 -1.18,3.72l-6.94 2.3c-1.58,0.52 -2.56,-0.28 -3.22,-2.27l-6.74 -20.36c-0.67,-2.03 -0.33,-3.17 1.25,-3.69l6.94 -2.3c1.58,-0.52 2.49,0.21 3.16,2.24l6.73 20.36zm6.37 -0.47l-7.69 -23.27c-1.37,-4.12 -4.71,-5.84 -8.55,-4.57l-10.38 3.43c-3.84,1.28 -5.5,4.65 -4.13,8.77l7.69 23.27c1.35,4.08 4.69,5.79 8.54,4.52l10.37 -3.43c3.84,-1.27 5.5,-4.64 4.15,-8.72z"/>
   <g>
    <path class="fil1" d="M558.03 382.78c1.72,-10.97 2.63,-21.97 2.63,-32.78 0,-5.36 -0.24,-10.79 -0.69,-16.49l36.31 -11.79 2.79 -0.91 -0.37 -2.9c-3.3,-25.86 -10.62,-50.97 -21.76,-74.61l-1.33 -2.82 -2.96 0.96 -35.68 11.6c-8.08,-15.55 -18.02,-29.98 -29.6,-42.99l22.29 -30.69 1.76 -2.41 -2.09 -2.13c-18.25,-18.68 -39.18,-34.33 -62.21,-46.52l-2.71 -1.42 -1.8 2.47 -22.15 30.47c-16.08,-7.66 -33.15,-13.23 -50.78,-16.59l0 -37.73 0 -3.05 -3.02 -0.44c-12.08,-1.77 -24.39,-2.67 -36.59,-2.67 -13.67,0 -27.5,1.13 -41.09,3.37l-2.96 0.48 0 3.01 0 37.89c-17.13,3.65 -33.78,9.48 -49.61,17.35l-22.07 -30.37 -1.83 -2.52 -2.73 1.5c-22.86,12.53 -43.57,28.49 -61.55,47.44l-2.02 2.13 1.72 2.37 22.44 30.87c-10.92,12.69 -20.26,26.59 -27.84,41.41l-35.61 -11.57 -2.99 -0.97 -1.31 2.84c-10.99,23.68 -18.17,48.83 -21.33,74.75l-0.36 2.89 2.77 0.9 36.38 11.83c-0.39,5.37 -0.6,10.34 -0.6,15.06 0,10.36 0.84,20.91 2.42,31.41l-35.68 11.59 -2.97 0.95 0.58 3.07c4.87,25.65 13.7,50.27 26.23,73.16l1.41 2.57 2.78 -0.91 36.31 -11.8c7.61,12.38 16.54,24.01 26.61,34.66l-22.14 30.47 -1.8 2.47 2.2 2.14c18.75,18.21 40.08,33.32 63.4,44.88l2.68 1.33 1.75 -2.41 22.31 -30.72c13.05,5.72 26.63,10.11 40.45,13.06l0 37.88 0 3 2.96 0.49c13.56,2.23 27.39,3.37 41.09,3.37 12.19,0 24.49,-0.9 36.58,-2.67l3.03 -0.44 0 -3.05 0 -37.72c14.26,-2.71 28.2,-6.89 41.51,-12.45l22.41 30.85 1.73 2.38 2.66 -1.27c23.5,-11.22 45.06,-26.01 64.07,-43.95l2.26 -2.14 -1.82 -2.51 -22.04 -30.34c10.77,-10.99 20.3,-23.1 28.4,-36.09l36.36 11.81 2.77 0.9 1.41 -2.55c12.67,-22.83 21.64,-47.4 26.65,-73.02l0.6 -3.08 -2.98 -0.96 -35.64 -11.58zm6.54 82.65l-36.14 -11.74 -2.67 -0.87 -1.44 2.4c-8.64,14.26 -19.06,27.47 -30.96,39.28l-2.15 2.14 1.78 2.45 21.93 30.19c-17.2,15.83 -36.47,29.04 -57.37,39.32l-22.29 -30.68 -1.67 -2.29 -2.59 1.13c-14.48,6.28 -29.78,10.86 -45.47,13.61l-2.92 0.52 0 2.97 0 37.53c-10.78,1.44 -21.7,2.21 -32.54,2.21 -12.33,0 -24.75,-1 -36.98,-2.86l0 -37.68 0 -2.9 -2.85 -0.56c-15.21,-3.03 -30.14,-7.85 -44.39,-14.34l-2.63 -1.19 -1.69 2.34 -22.2 30.55c-20.73,-10.6 -39.79,-24.09 -56.75,-40.16l22.03 -30.32 1.75 -2.41 -2.08 -2.13c-11.19,-11.51 -20.99,-24.27 -29.13,-37.92l-1.44 -2.43 -2.69 0.88 -36.11 11.73c-10.96,-20.6 -18.85,-42.59 -23.5,-65.47l35.5 -11.53 2.89 -0.93 -0.49 -3c-1.83,-11.1 -2.76,-22.3 -2.76,-33.27 0,-5.34 0.26,-10.99 0.79,-17.27l0.23 -2.79 -2.66 -0.87 -36.2 -11.76c3.1,-23.14 9.51,-45.61 19.05,-66.9l35.44 11.51 2.91 0.95 1.36 -2.75c7.95,-16.13 18.06,-31.18 30.04,-44.74l1.87 -2.13 -1.66 -2.29 -22.3 -30.7c16.27,-16.74 34.77,-31.01 55.07,-42.47l21.95 30.21 1.78 2.46 2.7 -1.39c16.92,-8.72 34.86,-15.01 53.32,-18.67l2.85 -0.56 0 -2.9 0 -37.69c12.26,-1.86 24.68,-2.85 36.98,-2.85 10.85,0 21.77,0.77 32.54,2.21l0 37.53 0 2.97 2.92 0.51c19.01,3.35 37.35,9.34 54.51,17.81l2.68 1.32 1.75 -2.41 22.02 -30.31c20.45,11.16 39.15,25.14 55.68,41.64l-22.18 30.52 -1.7 2.34 1.95 2.13c12.65,13.81 23.36,29.37 31.83,46.25l1.36 2.71 2.88 -0.93 35.51 -11.55c9.68,21.27 16.21,43.7 19.44,66.78l-36.13 11.74 -2.69 0.87 0.26 2.81c0.6,6.53 0.9,12.63 0.9,18.66 0,11.4 -1.02,23.05 -3,34.62l-0.52 3.01 2.91 0.95 35.47 11.51c-4.78,22.84 -12.8,44.79 -23.89,65.34z"/>
    <g>
     <path class="fil1" d="M398.96 216.66c-5.77,1.3 -10.37,-0.89 -12.16,-3.21 -1.79,-2.33 0.53,-9.49 2.5,-9.13 1.97,0.36 0.18,1.62 -0.35,4.83 -0.54,3.22 1.42,4.12 1.42,4.12 18.43,-13.96 4.12,-18.25 4.12,-18.25 5.01,-5.9 2.15,-14.67 2.15,-14.67 -11.45,3.76 -11.63,12.88 -11.63,12.88 -2.69,-4.29 -10.01,-1.61 -11.8,2.51 -1.79,4.11 -1.43,15.56 -1.43,15.56 7.33,1.61 5.72,-8.05 8.4,-8.41 2.68,-0.36 4.3,8.94 -8.22,11.27 -12.53,2.32 -15.75,-4.83 -17.18,-8.77 -1.43,-3.93 3.22,-7.33 4.29,-1.96 1.08,5.36 5.37,7.33 5.37,7.33 -1.61,-3.93 4.83,-10.02 4.29,-16.81 -0.53,-6.8 -12.16,-3.22 -12.16,-3.22 1.48,-3.36 0.92,-6.83 -0.36,-9.85 -0.76,-1.8 -1.74,-3.43 -2.7,-4.8l0 -6.54 5.25 0 0 -6.88 -5.25 0 0 -4.05 -6.89 0 0 4.05 -5.25 0 0 6.88 5.25 0 0 6.79c-0.9,1.32 -1.83,2.86 -2.54,4.55 -1.27,3.02 -1.83,6.49 -0.36,9.85 0,0 -11.62,-3.58 -12.16,3.22 -0.53,6.79 5.9,12.88 4.3,16.81 0,0 4.29,-1.97 5.36,-7.33 1.07,-5.37 5.72,-1.97 4.29,1.96 -1.43,3.94 -4.64,11.09 -17.16,8.77 -12.52,-2.33 -10.91,-11.63 -8.23,-11.27 2.68,0.36 1.07,10.02 8.41,8.41 0,0 0.35,-11.45 -1.44,-15.56 -1.78,-4.12 -9.12,-6.8 -11.81,-2.51 0,0 -0.17,-9.12 -11.62,-12.88 0,0 -2.86,8.77 2.15,14.67 0,0 -14.31,4.29 4.11,18.25 0,0 1.97,-0.9 1.43,-4.12 -0.53,-3.21 -2.32,-4.47 -0.35,-4.83 1.97,-0.36 4.28,6.8 2.5,9.13 -1.79,2.32 -6.39,4.51 -12.16,3.21 -12.74,-2.86 -3.27,-23.07 -20.03,-25.04 0,0 8.91,21.59 19.62,34.53l98.45 0c10.7,-12.94 19.62,-34.53 19.62,-34.53 -16.77,1.97 -7.3,22.18 -20.04,25.04z"/>
     <g>
      <g>
       <path class="fil1" d="M386.29 283.08c-1.98,-0.23 -5.21,-1.16 -6.11,-2.58 0.71,-1.54 1.72,-4.52 1.72,-7.98 0,-1.91 -0.31,-3.93 -1.24,-5.86 -0.73,-2.07 -2.16,-3.57 -4.15,-4.38 -1.46,-0.82 -3.05,-1.24 -4.74,-1.24 -5.45,0 -9.88,4.45 -9.88,9.89 0,3.65 2.06,6.92 5.25,8.64 -0.02,0.06 -0.02,0.06 -0.03,0.1 -0.82,0.06 -3.58,0.29 -3.58,0.29l-0.17 0.55c-0.02,0.09 -0.14,0.47 -0.14,0.98 0,0.49 0.1,1.07 0.45,1.65 0.2,0.31 0.57,0.63 1.06,0.9 -0.18,0.23 -0.19,0.31 -0.29,0.48 -0.7,0.01 -3.95,0.18 -3.95,0.18l-0.05 0.75c0,0.07 0,0.16 0,0.27 0,0.8 0.23,1.88 1.01,2.61 -0.12,0.17 -0.18,0.23 -0.28,0.34 -0.61,0 -2.84,0 -2.86,0 -0.01,-0.03 -1.36,-0.28 -1.99,-0.37 -0.37,-0.45 -2.77,-3.36 -3.03,-3.67 -0.67,-2.51 -0.92,-4.46 -0.92,-5.84 0,-2.96 1.02,-3.75 1.02,-3.77 2.54,-0.98 3.13,-1.92 3.22,-2.5 0.38,-0.76 0.63,-1.54 0.63,-2.28 0,-0.6 -0.16,-1.23 -0.44,-1.82 -0.23,-0.53 -0.56,-0.99 -0.96,-1.42l0 -0.02c-1.5,-1.56 -3.69,-2.49 -5.2,-2.5 -0.62,0 -1.43,0.11 -1.62,0.8 -0.13,0.37 -0.48,0.63 -0.91,0.58 -0.39,-0.02 -0.74,-0.34 -0.78,-0.75 -0.01,-0.09 -0.2,-1.41 -1.35,-2.78 -0.17,-0.13 -0.3,-0.31 -0.49,-0.4 -1.97,-1.04 -4.63,-0.81 -6.62,0.55 -2.12,1.46 -3.12,3.95 -2.79,6.86l0.21 1.74 1.27 -1.26c1.63,-1.64 5.52,1.3 7.1,2.7 -0.07,0.74 -0.49,8.38 -0.5,8.95 -2.49,2.52 -5.17,5.87 -5.93,6.83 -0.48,0.07 -2.12,0.37 -2.12,0.37 0,0 -2.11,0 -2.72,0 -0.13,-0.11 -0.15,-0.17 -0.29,-0.34 0.78,-0.73 1.02,-1.81 1.02,-2.61 0,-0.11 0,-0.2 -0.01,-0.27l-0.06 -0.75c0,0 -3.22,-0.17 -3.91,-0.18 -0.11,-0.17 -0.18,-0.25 -0.31,-0.48 0.5,-0.27 0.88,-0.59 1.07,-0.9 0.33,-0.58 0.43,-1.16 0.43,-1.65 0,-0.51 -0.11,-0.89 -0.13,-0.98l-0.16 -0.55c0,0 -2.76,-0.23 -3.59,-0.29 -0.01,-0.04 -0.01,-0.04 -0.04,-0.1 3.2,-1.72 5.27,-4.99 5.27,-8.64 0,-5.44 -4.42,-9.89 -9.91,-9.89 -1.65,0 -3.28,0.42 -4.79,1.29 -1.94,0.76 -3.34,2.26 -4.16,4.44 -0.86,1.85 -1.18,3.86 -1.18,5.74 0,3.44 1.03,6.45 1.75,7.99 -0.91,1.42 -4.16,2.35 -6.12,2.58l-0.96 0.12 0.23 0.97c0.9,3.7 3.95,5.05 8.77,3.92 0.77,-0.2 1.51,-0.63 2.21,-1.21 0.39,0.55 0.69,0.97 0.9,1.23 -0.06,0.59 -0.8,8.18 -0.8,8.18 -0.26,1.79 -4.43,2.88 -6.42,3.15l-0.97 0.12 0.22 0.92c0.94,3.74 4.01,5.09 8.78,3.96 2.7,-0.65 4.68,-3.43 5.99,-8.04 0.12,0.16 0.19,0.22 0.26,0.31 -0.14,1.69 -0.88,11.09 -1.26,13.78 -0.24,1.78 -4.45,2.9 -6.43,3.16l-0.97 0.11 0.25 0.95c0.93,3.7 3.93,5.08 8.76,3.91 5.41,-1.27 6.9,-10.69 7.28,-14.42 0,0.88 0,11.34 0,11.34 0,0 0.94,0.13 1.11,0.15 0,0.09 -0.02,0.16 -0.02,0.27 0,0.19 0.02,0.39 0.03,0.6 -1.44,3.13 -3.16,6.98 -3.95,8.71 -5.19,-0.81 -9.75,1.9 -9.96,2.03l1.95 3.23c0.03,-0.02 1.6,-0.93 3.74,-1.4 -1.24,1.21 -2.36,2.62 -2.77,4.11l3.64 1c0.45,-1.59 3.45,-4.01 5.47,-5.16 0.16,-0.14 0.34,-0.26 0.46,-0.43 1.01,-0.26 4.05,-0.37 6.92,-0.27l0.17 -3.79c-2.19,-0.09 -3.87,-0.05 -5.15,0.01l3.13 -6.93c0.04,-0.05 0.13,-0.08 0.18,-0.1 0.4,0.24 1.28,0.75 1.28,0.75 0,0 2.1,-0.75 2.89,-1.06 0.24,0.51 0.62,1.69 0.62,4.46 0,1.28 -0.09,2.88 -0.3,4.91 -0.25,2.34 -1.14,4.09 -2.65,5.22 -3.07,2.16 -7.69,1.17 -7.74,1.15l-1.67 -0.32 0.69 1.54c1.38,3.19 3.32,5.09 5.66,5.55 2.22,0.42 4.28,-0.44 5.71,-1.34 -0.03,0.47 -0.1,0.92 -0.1,1.35 0,4.54 3,7.98 3.16,8.15l0.63 0.72 0.62 -0.71c0.19,-0.17 3.25,-3.65 3.25,-8.21 0,-0.4 -0.05,-0.86 -0.13,-1.3 1.46,0.9 3.53,1.76 5.74,1.34 2.37,-0.46 4.26,-2.36 5.68,-5.55l0.65 -1.54 -1.64 0.32c-0.04,0.02 -4.67,1.01 -7.73,-1.15 -1.52,-1.13 -2.45,-2.88 -2.68,-5.22 -0.2,-2.03 -0.29,-3.63 -0.29,-4.91 0,-2.77 0.38,-3.95 0.61,-4.46 0.8,0.31 2.9,1.06 2.9,1.06 0,0 0.5,-0.29 0.91,-0.54l3.31 6.81c-1.29,-0.05 -2.93,-0.09 -5.03,0l0.15 3.79c3.01,-0.11 6.22,0.02 7.06,0.3 0.1,0.14 0.2,0.29 0.32,0.4 2.01,1.15 5.04,3.57 5.47,5.16l3.67 -1c-0.42,-1.49 -1.54,-2.9 -2.79,-4.11 2.12,0.47 3.69,1.38 3.73,1.4l1.96 -3.23c-0.22,-0.16 -4.8,-2.86 -10.01,-2.02 -0.76,-1.55 -2.4,-4.92 -3.84,-7.9 0.18,-0.43 0.23,-0.91 0.23,-1.42 0,-0.11 0,-0.18 0,-0.27 0.14,-0.02 1.08,-0.15 1.08,-0.15 0,0 0,-10.46 0,-11.34 0.42,3.73 1.89,13.15 7.3,14.42 4.78,1.17 7.81,-0.21 8.77,-3.91l0.23 -0.95 -0.98 -0.11c-1.98,-0.26 -6.16,-1.38 -6.43,-3.16 -0.37,-2.69 -1.09,-12.09 -1.25,-13.78 0.06,-0.09 0.17,-0.15 0.24,-0.31 1.34,4.61 3.33,7.39 5.98,8.04 4.82,1.13 7.86,-0.22 8.81,-3.96l0.23 -0.92 -0.96 -0.12c-2,-0.27 -6.17,-1.36 -6.44,-3.15 0,0 -0.64,-6.67 -0.79,-8.18 0.18,-0.26 0.51,-0.68 0.91,-1.23 0.69,0.58 1.42,1.01 2.19,1.21 4.83,1.13 7.84,-0.22 8.78,-3.92l0.25 -0.97 -0.99 -0.12zm-25.9 45.38l0 0c0,0 0.01,0.01 0.01,0.02l-0.01 -0.02zm-2.66 -61.93l1.07 0.62 1.92 -3.28 -2.27 -1.33 1.33 -2.26 -3.25 -1.9 -1.33 2.25 -2.26 -1.34 -1.94 3.26 0.45 0.28c2.24,0.31 4.75,1.67 6.28,3.7z"/>
       <path class="fil1" d="M288.09 330.36c1.52,5 3.27,10.94 3.42,11.43 0.38,0.42 4.89,5.63 7.37,8.51l2.04 -0.43 0.71 -8.91c-1.17,-0.91 -8.73,-6.83 -13.54,-10.6zm-5.38 8.93c0,-0.37 -0.29,-0.64 -0.66,-0.64 -0.32,0 -0.6,0.27 -0.6,0.64 0,0.32 0.28,0.6 0.6,0.6 0.37,0 0.66,-0.28 0.66,-0.6zm-21.77 -20.5l-15.13 -12.2 -6.84 -1.04 2.89 6.56 14.79 12.35 4.29 -5.67zm8.86 22.82c0,0 6.59,-3.73 7.42,-4.2 0.37,-0.63 1.38,-2.43 1.68,-2.98 0,-0.43 0.02,-1.1 0.06,-2.06 -1.44,-0.37 -3.15,-0.79 -4.49,-1.15 -1.07,1.76 -4.93,8.07 -4.93,8.07l-10.03 2.11 -0.76 -3.73c0,0 2.22,-0.45 4.43,-0.91l-0.07 -0.06 3.52 -4.05 -9.85 -8.11 -7.44 9.81 8.39 15.75c3.77,-2.68 11.93,-8.43 12.07,-8.49zm13.62 -13.61l2.83 -3.89 13.68 10.71 -5.65 -14.52 -10.51 -2.59c7.51,-3.37 12.79,-10.89 12.79,-19.66 0,-11.9 -9.65,-21.52 -21.54,-21.52 -11.86,0 -21.52,9.62 -21.52,21.52 0,8.77 5.26,16.29 12.79,19.66l-3.91 -0.57 -1.28 1.72 10.38 8.16 3.3 -3.83 2.88 2.43 -1.77 2.05 6.97 1.78 -0.2 5.48c2.15,0.3 3.84,2.12 3.84,4.36 0,2.4 -1.99,4.41 -4.45,4.41 -1.68,0 -3.15,-1.01 -3.9,-2.46 -2.22,1.24 -6.35,3.57 -6.35,3.57 -0.02,0 -11.84,8.33 -13.56,9.55l-0.48 6.51 -2.69 33.85 40.51 0 0.91 -30.44 0.29 -10.64 -8.66 -9.98 -4.7 -15.66zm-4.37 -27.3c1.22,-2.08 2.38,-4.75 2.39,-5.59 0,-2.83 -2.54,-5.1 -5.66,-5.1 -3.14,0 -5.67,2.27 -5.67,5.1l-6.88 0c0,-6.6 5.61,-11.97 12.55,-11.97 6.93,0 12.55,5.37 12.55,11.97 0,3.23 -2.58,7.82 -3.38,9.14l-5.9 -3.55z"/>
       <path class="fil1" d="M409.67 342.99c0.03,1.92 0.08,4.31 0.09,6.2 1.89,-0.01 4.29,-0.04 6.2,-0.07 -0.02,-1.88 -0.04,-4.29 -0.05,-6.17 -1.94,0.01 -4.31,0.01 -6.24,0.04zm31.79 -19.21l3.71 3.58 7.97 -8.06 -3.7 -3.6 -4 -0.23 2.16 -2.27 -2.9 -2.86 -9.84 10.69 -1.1 -1.05c-1.48,-0.57 -7.54,-2.99 -8.15,-3.24 -0.73,0.03 -11.12,0.4 -11.51,0.41 -0.35,0.11 -6.83,1.89 -8.67,2.39 -0.26,2.09 -0.49,4.29 -0.49,4.34l-4.01 26.94 0.03 6.54 0.4 37.88 40.75 0 -3.31 -38.71 -0.7 -9.75 -10.83 -1.02 -7.6 -2.81 0.12 9.96 -13.79 0.1 -0.12 -13.76 10.06 -0.12 -2.23 -4.48 6.14 -3.9 0.95 -0.58c0,0 1.52,0.78 3.33,1.74l10.73 -10.88 2.67 2.67 -9.83 10c1.13,0.59 2.12,1.08 2.54,1.3 0.95,-0.52 2.54,-1.39 2.54,-1.39l1.81 3.34 -4.3 2.34c0,0 -7.75,-3.97 -9.31,-4.77 -0.73,0.48 -1.36,0.89 -2.37,1.51 0.62,1.26 1.17,2.33 1.49,3.03 1.18,0.42 7.63,2.81 8.02,2.93 0.29,0.04 5.96,0.59 10.45,1.01l5.74 -0.47 -4.2 -16.4 -2.56 -2.46 3.65 -3.77 0.26 3.88zm-35.83 -9.14c0.09,0.14 0.11,0.35 0.12,0.53 0.13,0.1 0.24,0.16 0.35,0.26l7.41 -2.03 12.37 -0.45 0.38 -0.03 5.46 2.18c5.18,-3.91 8.54,-10.07 8.54,-17.05 0,-11.9 -9.65,-21.52 -21.52,-21.52 -11.92,0 -21.53,9.62 -21.53,21.52 0,0.57 0.06,1.11 0.09,1.66l8.33 14.93zm14.22 -31.5c6.92,0 12.56,5.37 12.56,11.97 0,3.23 -2.58,7.82 -3.39,9.14l-5.92 -3.55c1.26,-2.08 2.41,-4.75 2.42,-5.59 0,-2.83 -2.55,-5.1 -5.67,-5.1 -3.11,0 -5.67,2.27 -5.67,5.1l-6.9 0c0,-6.6 5.65,-11.97 12.57,-11.97zm-17.95 33.92l-0.33 -1.98c-1.28,-2.24 -4.74,-8.41 -7.13,-12.74l0 19.56 -4.7 12.03 0.49 11.05 7.63 0.79c1.18,-7.95 3.29,-22.43 3.29,-22.38 0,0 0.5,-4.22 0.75,-6.33z"/>
      </g>
      <path class="fil1" d="M345.46 456.09l0 2.64 -2.63 0 0 3.77 2.63 0 0 2.64 3.78 0 0 -2.64 2.63 0 0 -3.77 -2.63 0 0 -2.64 -3.78 0zm20.49 6.67l-2.57 0.08 2.01 -2.43 -2.93 -2.41 -15.18 18.33 -15.18 -18.33 -2.92 2.41 2.01 2.43 -2.91 -0.08 -0.24 0.2 -3.74 3.05 7.24 8.73 3.99 -3.23 0.45 -2.89 8.85 10.67 -7.73 9.33 -13.65 1.33 1.56 16.24 16.28 -1.53 -1.31 -13.61 7.3 -8.81 7.32 8.82 -1.33 13.6 16.28 1.53 1.56 -16.24 -13.65 -1.32 -7.73 -9.34 8.86 -10.68 0.45 2.9 3.97 3.23 7.26 -8.73 -3.98 -3.25 -0.34 0zm-29.65 29.75c0.23,2.22 0.65,6.49 0.84,8.72 -2.22,0.21 -6.47,0.63 -8.71,0.84 -0.22,-2.25 -0.6,-6.48 -0.85,-8.72 2.25,-0.21 6.49,-0.64 8.72,-0.84zm21.97 0c2.21,0.2 6.46,0.63 8.73,0.83 -0.23,2.25 -0.66,6.48 -0.88,8.73 -2.21,-0.21 -6.49,-0.63 -8.72,-0.84 0.22,-2.23 0.64,-6.5 0.87,-8.72z"/>
      <path class="fil1" d="M475.73 233.02l-254.92 0 0 167.64c0,64.17 59.15,118.38 129.19,118.38 32.58,0 65.28,-12.58 89.81,-34.56 25.38,-22.75 39.39,-52.53 39.39,-83.82l0 -167.64 -3.47 0zm-43.51 189.82c0,2.73 0,9.3 0,9.3l-19.34 0c0,0 0,-6.57 0,-9.3 -3.37,0 -7.38,0 -10.73,0 0,2.73 0,9.3 0,9.3l-19.39 0c0,0 0,-6.57 0,-9.3 -3.38,0 -7.33,0 -10.75,0 0,2.73 0,9.3 0,9.3l-19.35 0c0,0 0,-6.57 0,-9.3 -3.38,0 -7.38,0 -10.75,0 0,2.73 0,9.3 0,9.3l-19.38 0c0,0 0,-6.57 0,-9.3 -3.39,0 -7.35,0 -10.74,0 0,2.73 0,9.3 0,9.3l-19.36 0c0,0 0,-6.57 0,-9.3 -3.38,0 -7.37,0 -10.73,0 0,2.73 0,9.3 0,9.3l-19.4 0c0,0 0,-6.57 0,-9.3 -3.45,0 -10.68,0 -14.17,0l0 11.42 5.43 0 0 34.02c-16.13,-18.91 -25.86,-42.45 -25.86,-67.62 0,0 0,-154.11 0,-160.73 6.61,0 237.99,0 244.6,0 0,6.62 0,160.73 0,160.73 0,26.86 -11.07,52.55 -31.29,73.14l0 -39.54 5.43 0 0 -11.42c-3.49,0 -10.69,0 -14.22,0zm-135.59 77.71c-0.01,-0.22 -0.02,-0.44 -0.02,-0.67 0,-9.06 2.2,-17.61 6,-25.1 8.53,-16.8 25.3,-28.25 44.69,-28.25 20.27,0 37.74,12.6 45.84,30.79 3.03,6.85 4.8,14.5 4.8,22.56 0,0.92 -0.02,1.83 -0.06,2.73 -15.23,6.21 -31.58,9.55 -47.88,9.55 -19,0 -37.14,-4.2 -53.37,-11.61zm32.78 -75.31c2.27,0 3.36,0 5.61,0 0,-2.74 0,-9.28 0,-9.28l24.51 0c0,0 0,6.54 0,9.28 2.25,0 3.38,0 5.62,0 0,-2.74 0,-9.28 0,-9.28l8.1 0 0 -36.36 7.37 -9.46 0 -15.52 -10.75 0 0 9.3 -7.86 0 0 -9.3 -10.76 0 0 9.3 -7.82 0 0 -9.3 -10.73 0 0 9.3 -7.86 0 0 -9.3 -10.75 0 0 15.52 7.36 9.46 0 36.36 7.96 0c0,0 0,6.54 0,9.28zm90.35 0c2.22,0 3.35,0 5.6,0 0,-2.74 0,-9.28 0,-9.28l3.44 0 12.21 0 0 -15.3 -40.78 0 0 15.3 19.53 0c0,0 0,6.54 0,9.28zm-150.57 0c2.26,0 3.36,0 5.61,0 0,-2.74 0,-9.28 0,-9.28l19.52 0 0 -15.3 -40.76 0 0 15.3 15.63 0c0,0 0,6.54 0,9.28z"/>
     </g>
    </g>
   </g>
   <path class="fil1" d="M6.85 350c0,-189.21 153.94,-343.15 343.15,-343.15 189.22,0 343.15,153.94 343.15,343.15 0,189.21 -153.93,343.15 -343.15,343.15 -189.21,0 -343.15,-153.94 -343.15,-343.15zm-6.85 0c0,192.99 157.01,350 350,350 192.99,0 350,-157.01 350,-350 0,-192.99 -157.01,-350 -350,-350 -192.99,0 -350,157.01 -350,350z"/>
  </g>
 </g>
</svg>